<svg width="272" height="288" viewBox="0 0 272 288" fill="none" xmlns="http://www.w3.org/2000/svg">
<path d="M237 209C240.314 209 243 206.314 243 203C243 199.686 240.314 197 237 197C233.686 197 231 199.686 231 203C231 206.314 233.686 209 237 209Z" fill="#F5F8FC"/>
<circle cx="107.351" cy="180.351" r="11.4803" transform="rotate(100.319 107.351 180.351)" fill="#F5F8FC"/>
<g filter="url(#filter0_b_2645_12174)">
<circle cx="128.144" cy="154.144" r="28.5" transform="rotate(100.319 128.144 154.144)" fill="#90CAFF" fill-opacity="0.05"/>
<circle cx="128.144" cy="154.144" r="29" transform="rotate(100.319 128.144 154.144)" stroke="url(#paint0_linear_2645_12174)" stroke-linecap="round" stroke-linejoin="round"/>
</g>
<path d="M94.8028 263C97.3972 260.348 99 256.699 99 252.678C99 244.572 92.5077 238 84.5 238C76.4923 238 70 244.572 70 252.678C70 256.706 71.6028 260.348 74.1972 263H94.7966H94.8028Z" fill="url(#paint1_linear_2645_12174)"/>
<g filter="url(#filter1_b_2645_12174)">
<path d="M187.939 262C189.273 257.563 190 252.87 190 248.01C190 220.946 167.844 199 140.5 199C113.156 199 91 220.937 91 248.01C91 252.87 91.7269 257.573 93.0613 262H187.939Z" fill="#90CAFF" fill-opacity="0.05"/>
<path d="M187.939 262.5C188.159 262.5 188.354 262.355 188.418 262.144C189.766 257.662 190.5 252.921 190.5 248.01C190.5 220.666 168.116 198.5 140.5 198.5C112.885 198.5 90.5 220.656 90.5 248.01C90.5 252.92 91.2344 257.672 92.5825 262.144C92.6462 262.355 92.8407 262.5 93.0613 262.5H187.939Z" stroke="url(#paint2_linear_2645_12174)" stroke-linecap="round" stroke-linejoin="round"/>
</g>
<path d="M262.975 262C262.975 261.722 263 261.432 263 261.155C263 242.844 247.777 228 229 228C210.223 228 195 242.844 195 261.155C195 261.444 195.012 261.722 195.025 262H262.975Z" fill="url(#paint3_linear_2645_12174)"/>
<g filter="url(#filter2_b_2645_12174)">
<path d="M257.5 245C263.299 245 268 240.299 268 234.5C268 228.701 263.299 224 257.5 224C251.701 224 247 228.701 247 234.5C247 240.299 251.701 245 257.5 245Z" fill="#90CAFF" fill-opacity="0.05"/>
<path d="M257.5 245.5C263.575 245.5 268.5 240.575 268.5 234.5C268.5 228.425 263.575 223.5 257.5 223.5C251.425 223.5 246.5 228.425 246.5 234.5C246.5 240.575 251.425 245.5 257.5 245.5Z" stroke="url(#paint4_linear_2645_12174)" stroke-linecap="round" stroke-linejoin="round"/>
</g>
<path d="M246.75 195.737H158.24V161.317C158.24 160.217 159.14 159.317 160.24 159.317H244.75C245.85 159.317 246.75 160.217 246.75 161.317V195.737Z" fill="#c3f9de"/>
<g style="mix-blend-mode:overlay" opacity="0.7">
<path d="M246.35 192.867H234.19V195.727H246.35V192.867Z" fill="black"/>
</g>
<path d="M246.75 195.737H158.24V161.317C158.24 160.217 159.14 159.317 160.24 159.317H244.75C245.85 159.317 246.75 160.217 246.75 161.317V195.737Z" stroke="url(#paint5_linear_2645_12174)" stroke-linecap="round" stroke-linejoin="round"/>
<path d="M241.91 207.767H149.04V156.367C149.04 154.787 150.32 153.507 151.9 153.507H239.04C240.62 153.507 241.9 154.787 241.9 156.367V207.767H241.91Z" fill="#D2DEF9"/>
<path d="M241.91 207.767H149.04V156.367C149.04 154.787 150.32 153.507 151.9 153.507H239.04C240.62 153.507 241.9 154.787 241.9 156.367V207.767H241.91Z" fill="#cafbe2"/>
<g style="mix-blend-mode:overlay">
<path d="M241.9 157.167V156.367C241.9 154.787 240.62 153.507 239.04 153.507H151.9C150.32 153.507 149.04 154.787 149.04 156.367V157.167H241.91H241.9Z" fill="#cafbe2"/>
</g>
<path d="M238.13 153.507H152.81C150.73 153.507 149.04 155.197 149.04 157.277V207.757H150.36L151.59 160.847C151.64 158.207 153.76 156.067 156.4 155.987L238.14 153.497" fill="white"/>
<g style="mix-blend-mode:overlay" opacity="0.7">
<path d="M241.9 192.807H229.62V196.997H241.9V192.807Z" fill="black"/>
</g>
<path d="M241.91 207.767H149.04V156.367C149.04 154.787 150.32 153.507 151.9 153.507H239.04C240.62 153.507 241.9 154.787 241.9 156.367V207.767H241.91Z" stroke="url(#paint6_linear_2645_12174)" stroke-linecap="round" stroke-linejoin="round"/>
<path d="M235.05 197.117H142.18V145.717C142.18 144.137 143.46 142.857 145.04 142.857H232.18C233.76 142.857 235.04 144.137 235.04 145.717V197.117H235.05Z" fill="#cafbe2"/>
<path d="M231.27 142.857H145.95C143.87 142.857 142.18 144.547 142.18 146.627V197.107H143.5L144.73 150.197C144.78 147.557 146.9 145.417 149.54 145.337L231.28 142.847" fill="white"/>
<g style="mix-blend-mode:overlay" opacity="0.7">
<path d="M235.04 196.347H222.76V192.157L225.74 154.237L229.79 189.837C229.94 191.157 231.06 192.157 232.39 192.157H235.04V196.347Z" fill="black"/>
</g>
<path d="M235.05 197.117H142.18V145.717C142.18 144.137 143.46 142.857 145.04 142.857H232.18C233.76 142.857 235.04 144.137 235.04 145.717V197.117H235.05Z" stroke="url(#paint7_linear_2645_12174)" stroke-linecap="round" stroke-linejoin="round"/>
<path d="M226.19 200.557H133.32V134.157C133.32 132.577 134.6 131.297 136.18 131.297H223.33C224.91 131.297 226.19 132.577 226.19 134.157V200.557Z" fill="#cafbe2"/>
<g style="mix-blend-mode:overlay">
<path d="M213.86 144.857H153.57" stroke="black" stroke-linecap="round" stroke-linejoin="round"/>
</g>
<g style="mix-blend-mode:overlay">
<path d="M213.86 151.177H153.57" stroke="black" stroke-linecap="round" stroke-linejoin="round"/>
</g>
<path d="M222.42 131.287H137.1C135.02 131.287 133.33 132.977 133.33 135.057V200.537H134.65L137.67 141.737C137.84 138.427 140.48 135.787 143.78 135.597L222.42 131.277" fill="white"/>
<g style="mix-blend-mode:overlay" opacity="0.7">
<path d="M219.72 189.747L217.58 165.917L214 192.867H213.91V197.057H226.19V192.867H223.13C221.36 192.867 219.87 191.517 219.72 189.747Z" fill="black"/>
</g>
<path d="M226.19 200.557H133.32V134.157C133.32 132.577 134.6 131.297 136.18 131.297H223.33C224.91 131.297 226.19 132.577 226.19 134.157V200.557Z" stroke="url(#paint8_linear_2645_12174)" stroke-linecap="round" stroke-linejoin="round"/>
<path d="M216.92 220.747H128.41V150.047C128.41 148.947 129.31 148.047 130.41 148.047H202.21L216.92 157.217V220.737V220.747Z" fill="#F5F8FC"/>
<g style="mix-blend-mode:overlay">
<path d="M209.36 190.637L193.13 199.707L216.91 198.347V157.227L202.2 148.057L193.57 147.817L208.41 161.217L211.76 186.647C211.72 188.307 210.8 189.827 209.35 190.637H209.36Z" fill="black"/>
</g>
<path d="M202.21 148.047L206.7 157.397C207.62 159.317 209.89 160.177 211.86 159.347L216.92 157.217L202.21 148.047Z" fill="#015945"/>
<g style="mix-blend-mode:soft-light">
<path d="M194.23 162.587H147.64C146.541 162.587 145.65 163.478 145.65 164.577C145.65 165.676 146.541 166.567 147.64 166.567H194.23C195.329 166.567 196.22 165.676 196.22 164.577C196.22 163.478 195.329 162.587 194.23 162.587Z" fill="black"/>
</g>
<path d="M195.23 161.587H148.64C147.541 161.587 146.65 162.478 146.65 163.577C146.65 164.676 147.541 165.567 148.64 165.567H195.23C196.329 165.567 197.22 164.676 197.22 163.577C197.22 162.478 196.329 161.587 195.23 161.587Z" fill="#D2DEF9"/>
<path d="M195.23 161.587H148.64C147.541 161.587 146.65 162.478 146.65 163.577C146.65 164.676 147.541 165.567 148.64 165.567H195.23C196.329 165.567 197.22 164.676 197.22 163.577C197.22 162.478 196.329 161.587 195.23 161.587Z" fill="#c3f9de"/>
<g style="mix-blend-mode:overlay">
<path d="M196.23 164.567H149.64C148.54 164.567 147.65 163.677 147.65 162.577C147.65 162.287 147.72 162.017 147.83 161.767C147.14 162.077 146.65 162.767 146.65 163.577C146.65 164.677 147.54 165.567 148.64 165.567H195.23C196.04 165.567 196.73 165.087 197.04 164.387C196.79 164.497 196.52 164.567 196.23 164.567Z" fill="#cafbe2"/>
</g>
<path opacity="0.3" d="M195.23 161.587H148.64C147.83 161.587 147.14 162.067 146.83 162.767C147.08 162.657 147.35 162.587 147.64 162.587H194.23C195.33 162.587 196.22 163.477 196.22 164.577C196.22 164.867 196.15 165.137 196.04 165.387C196.73 165.077 197.22 164.387 197.22 163.577C197.22 162.477 196.33 161.587 195.23 161.587Z" fill="white"/>
<g style="mix-blend-mode:soft-light">
<path d="M194.23 170H174.64C173.541 170 172.65 170.891 172.65 171.99C172.65 173.089 173.541 173.98 174.64 173.98H194.23C195.329 173.98 196.22 173.089 196.22 171.99C196.22 170.891 195.329 170 194.23 170Z" fill="black"/>
</g>
<path d="M195.23 169H175.64C174.541 169 173.65 169.891 173.65 170.99C173.65 172.089 174.541 172.98 175.64 172.98H195.23C196.329 172.98 197.22 172.089 197.22 170.99C197.22 169.891 196.329 169 195.23 169Z" fill="#D2DEF9"/>
<path d="M195.23 169H175.64C174.541 169 173.65 169.891 173.65 170.99C173.65 172.089 174.541 172.98 175.64 172.98H195.23C196.329 172.98 197.22 172.089 197.22 170.99C197.22 169.891 196.329 169 195.23 169Z" fill="#c3f9de"/>
<g style="mix-blend-mode:overlay">
<path d="M196.23 171.98H176.64C175.54 171.98 174.65 171.09 174.65 169.99C174.65 169.7 174.72 169.43 174.83 169.18C174.14 169.49 173.65 170.18 173.65 170.99C173.65 172.09 174.54 172.98 175.64 172.98H195.23C196.04 172.98 196.73 172.5 197.04 171.8C196.79 171.91 196.52 171.98 196.23 171.98Z" fill="#cafbe2"/>
</g>
<path opacity="0.3" d="M195.23 169H175.64C174.83 169 174.14 169.48 173.83 170.18C174.08 170.07 174.35 170 174.64 170H194.23C195.33 170 196.22 170.89 196.22 171.99C196.22 172.28 196.15 172.55 196.04 172.8C196.73 172.49 197.22 171.8 197.22 170.99C197.22 169.89 196.33 169 195.23 169Z" fill="white"/>
<g style="mix-blend-mode:soft-light">
<path d="M165.64 170H163.05C161.951 170 161.06 170.891 161.06 171.99C161.06 173.089 161.951 173.98 163.05 173.98H165.64C166.739 173.98 167.63 173.089 167.63 171.99C167.63 170.891 166.739 170 165.64 170Z" fill="black"/>
</g>
<path d="M166.64 169H164.05C162.951 169 162.06 169.891 162.06 170.99C162.06 172.089 162.951 172.98 164.05 172.98H166.64C167.739 172.98 168.63 172.089 168.63 170.99C168.63 169.891 167.739 169 166.64 169Z" fill="#D2DEF9"/>
<path d="M166.64 169H164.05C162.951 169 162.06 169.891 162.06 170.99C162.06 172.089 162.951 172.98 164.05 172.98H166.64C167.739 172.98 168.63 172.089 168.63 170.99C168.63 169.891 167.739 169 166.64 169Z" fill="#c3f9de"/>
<g style="mix-blend-mode:overlay">
<path d="M167.64 171.98H165.05C163.95 171.98 163.06 171.09 163.06 169.99C163.06 169.7 163.13 169.43 163.24 169.18C162.55 169.49 162.06 170.18 162.06 170.99C162.06 172.09 162.95 172.98 164.05 172.98H166.64C167.45 172.98 168.14 172.5 168.45 171.8C168.2 171.91 167.93 171.98 167.64 171.98Z" fill="#cafbe2"/>
</g>
<path opacity="0.3" d="M166.64 169H164.05C163.24 169 162.55 169.48 162.24 170.18C162.49 170.07 162.76 170 163.05 170H165.64C166.74 170 167.63 170.89 167.63 171.99C167.63 172.28 167.56 172.55 167.45 172.8C168.14 172.49 168.63 171.8 168.63 170.99C168.63 169.89 167.74 169 166.64 169Z" fill="white"/>
<g style="mix-blend-mode:soft-light">
<path d="M194.23 178H187.64C186.541 178 185.65 178.891 185.65 179.99C185.65 181.089 186.541 181.98 187.64 181.98H194.23C195.329 181.98 196.22 181.089 196.22 179.99C196.22 178.891 195.329 178 194.23 178Z" fill="black"/>
</g>
<path d="M195.23 177H188.64C187.541 177 186.65 177.891 186.65 178.99C186.65 180.089 187.541 180.98 188.64 180.98H195.23C196.329 180.98 197.22 180.089 197.22 178.99C197.22 177.891 196.329 177 195.23 177Z" fill="#D2DEF9"/>
<path d="M195.23 177H188.64C187.541 177 186.65 177.891 186.65 178.99C186.65 180.089 187.541 180.98 188.64 180.98H195.23C196.329 180.98 197.22 180.089 197.22 178.99C197.22 177.891 196.329 177 195.23 177Z" fill="#c3f9de"/>
<g style="mix-blend-mode:overlay">
<path d="M196.23 179.98H189.64C188.54 179.98 187.65 179.09 187.65 177.99C187.65 177.7 187.72 177.43 187.83 177.18C187.14 177.49 186.65 178.18 186.65 178.99C186.65 180.09 187.54 180.98 188.64 180.98H195.23C196.04 180.98 196.73 180.5 197.04 179.8C196.79 179.91 196.52 179.98 196.23 179.98Z" fill="#cafbe2"/>
</g>
<path opacity="0.3" d="M195.23 177H188.64C187.83 177 187.14 177.48 186.83 178.18C187.08 178.07 187.35 178 187.64 178H194.23C195.33 178 196.22 178.89 196.22 179.99C196.22 180.28 196.15 180.55 196.04 180.8C196.73 180.49 197.22 179.8 197.22 178.99C197.22 177.89 196.33 177 195.23 177Z" fill="white"/>
<g style="mix-blend-mode:soft-light">
<path d="M181.73 178H152.14C151.041 178 150.15 178.891 150.15 179.99C150.15 181.089 151.041 181.98 152.14 181.98H181.73C182.829 181.98 183.72 181.089 183.72 179.99C183.72 178.891 182.829 178 181.73 178Z" fill="black"/>
</g>
<path d="M182.73 177H153.14C152.041 177 151.15 177.891 151.15 178.99C151.15 180.089 152.041 180.98 153.14 180.98H182.73C183.829 180.98 184.72 180.089 184.72 178.99C184.72 177.891 183.829 177 182.73 177Z" fill="#D2DEF9"/>
<path d="M182.73 177H153.14C152.041 177 151.15 177.891 151.15 178.99C151.15 180.089 152.041 180.98 153.14 180.98H182.73C183.829 180.98 184.72 180.089 184.72 178.99C184.72 177.891 183.829 177 182.73 177Z" fill="#c3f9de"/>
<g style="mix-blend-mode:overlay">
<path d="M183.73 179.98H154.14C153.04 179.98 152.15 179.09 152.15 177.99C152.15 177.7 152.22 177.43 152.33 177.18C151.64 177.49 151.15 178.18 151.15 178.99C151.15 180.09 152.04 180.98 153.14 180.98H182.73C183.54 180.98 184.23 180.5 184.54 179.8C184.29 179.91 184.02 179.98 183.73 179.98Z" fill="#cafbe2"/>
</g>
<path opacity="0.3" d="M182.73 177H153.14C152.33 177 151.64 177.48 151.33 178.18C151.58 178.07 151.85 178 152.14 178H181.73C182.83 178 183.72 178.89 183.72 179.99C183.72 180.28 183.65 180.55 183.54 180.8C184.23 180.49 184.72 179.8 184.72 178.99C184.72 177.89 183.83 177 182.73 177Z" fill="white"/>
<path d="M201.2 148.047H131.48C129.78 148.047 128.4 149.427 128.4 151.127V200.677H131.48V156.067C131.48 153.307 133.67 151.047 136.42 150.957L201.19 148.037L201.2 148.047Z" fill="white"/>
<g style="mix-blend-mode:overlay">
<path d="M128.41 205.807V183.167H140.22C143.61 183.167 146.75 184.977 148.45 187.907L152.56 195.007C154.26 197.947 157.39 199.747 160.79 199.747H187.2L183.62 205.797H128.41V205.807Z" fill="black"/>
</g>
<g style="mix-blend-mode:overlay" opacity="0.4">
<path d="M128.41 205.807V183.167H140.22C143.61 183.167 146.75 184.977 148.45 187.907L152.56 195.007C154.26 197.947 157.39 199.747 160.79 199.747H187.2L183.62 205.797H128.41V205.807Z" fill="black"/>
</g>
<path d="M128.41 202.547V150.687C128.41 149.227 129.59 148.047 131.05 148.047H202.21L216.92 157.217V202.537" stroke="url(#paint9_linear_2645_12174)" stroke-linecap="round" stroke-linejoin="round"/>
<path d="M218.07 262.417H250.88V192.547H218.07V262.417Z" fill="#996CF7"/>
<path d="M218.07 262.417H250.88V192.547H218.07V262.417Z" fill="#02a67f"/>
<g style="mix-blend-mode:overlay" opacity="0.5">
<path d="M218.08 243.787H250.89" stroke="#606060" stroke-linecap="round" stroke-linejoin="round"/>
</g>
<g style="mix-blend-mode:overlay" opacity="0.5">
<path d="M218.08 240.257H250.89" stroke="#606060" stroke-linecap="round" stroke-linejoin="round"/>
</g>
<g style="mix-blend-mode:overlay" opacity="0.5">
<path d="M217.79 224.777H250.6" stroke="#606060" stroke-linecap="round" stroke-linejoin="round"/>
</g>
<g style="mix-blend-mode:overlay" opacity="0.5">
<path d="M217.79 221.247H250.6" stroke="#606060" stroke-linecap="round" stroke-linejoin="round"/>
</g>
<g style="mix-blend-mode:overlay" opacity="0.5">
<path d="M217.79 234.287H250.6" stroke="#606060" stroke-linecap="round" stroke-linejoin="round"/>
</g>
<g style="mix-blend-mode:overlay" opacity="0.5">
<path d="M217.79 230.757H250.6" stroke="#606060" stroke-linecap="round" stroke-linejoin="round"/>
</g>
<g style="mix-blend-mode:overlay" opacity="0.3">
<path d="M218.08 214.717L222.75 201.267C223.35 199.537 224.87 198.307 226.69 198.067L250.89 194.957V193.167H218.08V214.707V214.717Z" fill="black"/>
</g>
<g style="mix-blend-mode:overlay" opacity="0.3">
<path d="M250.89 240.877L248.43 256.327C248.1 258.407 246.53 260.087 244.47 260.547L236.09 262.427H250.89V240.887V240.877Z" fill="black"/>
</g>
<path d="M138.5 192.547L146.34 205.807H183.61L191.46 192.547H218.08V262.417H115.2V192.547H138.5Z" fill="url(#paint10_linear_2645_12174)"/>
<g style="mix-blend-mode:overlay" opacity="0.7">
<path d="M156.67 231.617H175.28C177.6 231.617 179.48 229.739 179.48 227.422C179.48 225.105 177.6 223.227 175.28 223.227H156.67C154.35 223.227 152.47 225.105 152.47 227.422C152.47 229.739 154.35 231.617 156.67 231.617Z" fill="black"/>
</g>
<path d="M155.67 227.987H174.28C176.6 227.987 178.48 226.109 178.48 223.792C178.48 221.475 176.6 219.597 174.28 219.597H155.67C153.35 219.597 151.47 221.475 151.47 223.792C151.47 226.109 153.35 227.987 155.67 227.987Z" fill="white"/>
<path d="M119.85 192.547H115.2V262.417H119.85V192.547Z" fill="white"/>
<g style="mix-blend-mode:overlay" opacity="0.5">
<path d="M189 196.267H206.61C211.15 196.267 215.08 199.407 216.09 203.827L218.09 212.557V192.697H191.12L189.01 196.267H189Z" fill="black"/>
</g>
<g style="mix-blend-mode:overlay" opacity="0.5">
<path d="M140.61 196.117H115.2V192.547H138.5L140.61 196.117Z" fill="black"/>
</g>
<path d="M138.5 192.547L145.19 203.857C145.9 205.067 147.2 205.807 148.61 205.807H181.35C182.75 205.807 184.05 205.067 184.77 203.857L191.46 192.547H218.08V262.417H115.2V192.547H138.5Z" stroke="url(#paint11_linear_2645_12174)" stroke-linecap="round" stroke-linejoin="round"/>
<path d="M141.88 189.317L152.2 205.807H148.46C147.14 205.807 145.91 205.127 145.21 204.007L135.02 187.737H139.02C140.18 187.737 141.26 188.337 141.88 189.317Z" fill="#015945"/>
<path d="M155.67 229.617H174.28C176.6 229.617 178.48 227.739 178.48 225.422C178.48 223.105 176.6 221.227 174.28 221.227H155.67C153.351 221.227 151.47 223.105 151.47 225.422C151.47 227.739 153.351 229.617 155.67 229.617Z" fill="#4ef09d"/>
<g style="mix-blend-mode:overlay" opacity="0.7">
<path d="M154.37 225.417V225.377C154.39 223.817 155.74 222.607 157.3 222.607H177.27C177.27 221.847 176.65 221.217 175.88 221.217H154.9V221.297C152.79 221.687 151.23 223.647 151.49 225.927C151.74 228.067 153.69 229.617 155.85 229.617H158.56C156.24 229.617 154.36 227.737 154.36 225.417H154.37Z" fill="black"/>
</g>
<path d="M155.67 229.617H174.28C176.6 229.617 178.48 227.739 178.48 225.422C178.48 223.105 176.6 221.227 174.28 221.227H155.67C153.351 221.227 151.47 223.105 151.47 225.422C151.47 227.739 153.351 229.617 155.67 229.617Z" stroke="#1B217C" stroke-linecap="round" stroke-linejoin="round"/>
<path d="M256 190.137C256 191.467 254.92 192.547 253.59 192.547H191.45L194.3 187.727H253.59C254.92 187.727 256 188.807 256 190.137Z" fill="#015945"/>
<path d="M193.63 189.117L194.45 187.737H256V189.117H193.63Z" fill="white"/>
<path d="M111.4 190.137C111.4 191.467 112.48 192.547 113.81 192.547H137.88L135.03 187.727H113.81C112.48 187.727 111.4 188.807 111.4 190.137Z" fill="#015945"/>
<path d="M135.03 187.737L112.97 187.887L111.4 189.117H135.85L135.03 187.737Z" fill="white"/>
<path d="M111.4 190.137C111.4 191.467 112.48 192.547 113.81 192.547H137.88L135.03 187.727H113.81C112.48 187.727 111.4 188.807 111.4 190.137Z" stroke="url(#paint13_linear_2645_12174)" stroke-linecap="round" stroke-linejoin="round"/>
<path d="M256 190.137C256 191.467 254.92 192.547 253.59 192.547H191.45L193.13 189.707C193.85 188.487 195.17 187.737 196.59 187.737H253.59C254.92 187.737 256 188.817 256 190.147V190.137Z" stroke="url(#paint14_linear_2645_12174)" stroke-linecap="round" stroke-linejoin="round"/>
<path d="M242.2 200.127V209.817" stroke="white" stroke-width="2" stroke-linecap="round" stroke-linejoin="round"/>
<path d="M242.2 214.567V216.017" stroke="white" stroke-width="2" stroke-linecap="round" stroke-linejoin="round"/>
<path d="M216.92 157.227L211.86 159.357C209.89 160.187 207.62 159.327 206.7 157.407L202.21 148.057" stroke="url(#paint15_linear_2645_12174)" stroke-linecap="round" stroke-linejoin="round"/>
<path d="M218.07 262.417H250.88V192.547H218.07V262.417Z" stroke="url(#paint16_linear_2645_12174)" stroke-linecap="round" stroke-linejoin="round"/>
<g style="mix-blend-mode:overlay">
<path d="M213.86 139.237H205.56" stroke="black" stroke-linecap="round" stroke-linejoin="round"/>
</g>
<path d="M228.88 30.6867L121.35 24.0267C113.58 23.5467 107.02 29.7167 107.02 37.4967V90.1267C107.02 97.9067 113.58 104.077 121.35 103.597L200.27 98.7067C202.1 98.5967 203.89 99.2467 205.21 100.517L214 108.917C214.73 109.617 215.94 109.097 215.94 108.087V99.8167C215.94 98.6467 216.85 97.6767 218.02 97.6067L228.88 96.9367C233.86 96.6267 237.74 92.4967 237.74 87.5067V40.1167C237.74 35.1267 233.86 30.9967 228.88 30.6867Z" fill="#F5F8FC"/>
<path opacity="0.3" d="M107.02 55.6068L150.71 25.8468L144.38 25.4468L107.02 48.6268V55.6068Z" fill="white"/>
<path opacity="0.6" d="M107.02 41.2467V45.8067L139.04 25.1167L132.8 24.7367L107.02 41.2467Z" fill="white"/>
<path d="M228.88 30.6868L121.35 24.0268C116.72 23.7368 112.52 25.8268 109.88 29.2068C112.37 27.2968 115.53 26.2468 118.92 26.4568L225.14 36.4168C230.12 36.7268 234 40.8568 234 45.8468L235.31 89.9368C235.31 91.9168 234.69 93.7668 233.64 95.2868C236.12 93.5768 237.74 90.7268 237.74 87.5068V40.1168C237.74 35.1268 233.86 30.9968 228.88 30.6868Z" fill="white"/>
<g style="mix-blend-mode:overlay">
<path d="M203.98 93.8468L124.98 98.7368C117.21 99.2168 110.65 93.0468 110.65 85.2668V32.6368C110.65 30.7068 111.06 28.8668 111.78 27.2168C108.87 29.6868 107 33.3568 107 37.4968V90.1268C107 97.9068 113.56 104.077 121.33 103.597L200.25 98.7068C202.08 98.5968 203.87 99.2468 205.19 100.517L213.98 108.917C214.71 109.617 215.92 109.097 215.92 108.087V102.437L208.78 95.6068C207.49 94.3768 205.74 93.7368 203.96 93.8468H203.98Z" fill="#cafbe2"/>
</g>
<g style="mix-blend-mode:overlay">
<path d="M125.56 90.9568C128.537 90.9568 130.95 88.5436 130.95 85.5668C130.95 82.5899 128.537 80.1768 125.56 80.1768C122.583 80.1768 120.17 82.5899 120.17 85.5668C120.17 88.5436 122.583 90.9568 125.56 90.9568Z" fill="#cafbe2"/>
</g>
<g style="mix-blend-mode:overlay">
<path d="M130.21 76.8867C131.414 76.8867 132.39 75.9107 132.39 74.7067C132.39 73.5028 131.414 72.5267 130.21 72.5267C129.006 72.5267 128.03 73.5028 128.03 74.7067C128.03 75.9107 129.006 76.8867 130.21 76.8867Z" fill="#cafbe2"/>
</g>
<path d="M228.88 30.6867L121.35 24.0267C113.58 23.5467 107.02 29.7167 107.02 37.4967V90.1267C107.02 97.9067 113.58 104.077 121.35 103.597L200.27 98.7067C202.1 98.5967 203.89 99.2467 205.21 100.517L214 108.917C214.73 109.617 215.94 109.097 215.94 108.087V99.8167C215.94 98.6467 216.85 97.6767 218.02 97.6067L228.88 96.9367C233.86 96.6267 237.74 92.4967 237.74 87.5067V40.1167C237.74 35.1267 233.86 30.9967 228.88 30.6867Z" stroke="url(#paint17_linear_2645_12174)" stroke-linecap="round" stroke-linejoin="round"/>
<g style="mix-blend-mode:overlay">
<path d="M198.02 49.7368H141.12C139.656 49.7368 138.47 50.9233 138.47 52.3868V53.5168C138.47 54.9804 139.656 56.1668 141.12 56.1668H198.02C199.484 56.1668 200.67 54.9804 200.67 53.5168V52.3868C200.67 50.9233 199.484 49.7368 198.02 49.7368Z" fill="#cafbe2"/>
<path d="M198.02 62.4968H186.22C184.756 62.4968 183.57 63.6833 183.57 65.1468V66.2768C183.57 67.7404 184.756 68.9268 186.22 68.9268H198.02C199.483 68.9268 200.67 67.7404 200.67 66.2768V65.1468C200.67 63.6833 199.483 62.4968 198.02 62.4968Z" fill="#cafbe2"/>
<path d="M198.02 75.2468H162.68C161.216 75.2468 160.03 76.4333 160.03 77.8968V79.0268C160.03 80.4904 161.216 81.6768 162.68 81.6768H198.02C199.484 81.6768 200.67 80.4904 200.67 79.0268V77.8968C200.67 76.4333 199.484 75.2468 198.02 75.2468Z" fill="#cafbe2"/>
</g>
<path d="M200.16 47.5968H143.26C141.796 47.5968 140.61 48.7832 140.61 50.2468V51.3768C140.61 52.8404 141.796 54.0268 143.26 54.0268H200.16C201.624 54.0268 202.81 52.8404 202.81 51.3768V50.2468C202.81 48.7832 201.624 47.5968 200.16 47.5968Z" fill="#c3f9de"/>
<g style="mix-blend-mode:overlay">
<path d="M201.73 52.9568H144.77C143.07 52.9568 141.69 51.5768 141.69 49.8768V48.6868C141.69 48.3668 141.76 48.0668 141.89 47.7968C141.14 48.1368 140.62 48.8868 140.62 49.7568V50.9468C140.62 52.6468 142 54.0268 143.7 54.0268H200.66C201.53 54.0268 202.28 53.5068 202.62 52.7568C202.35 52.8768 202.05 52.9568 201.73 52.9568Z" fill="#cafbe2"/>
</g>
<path opacity="0.3" d="M199.73 47.5968H142.77C141.9 47.5968 141.15 48.1168 140.81 48.8668C141.08 48.7468 141.38 48.6668 141.7 48.6668H198.66C200.36 48.6668 201.74 50.0468 201.74 51.7468V52.9368C201.74 53.2568 201.67 53.5568 201.54 53.8268C202.29 53.4868 202.81 52.7368 202.81 51.8668V50.6768C202.81 48.9768 201.43 47.5968 199.73 47.5968Z" fill="white"/>
<path d="M200.17 60.3468H188.37C186.906 60.3468 185.72 61.5332 185.72 62.9968V64.1268C185.72 65.5904 186.906 66.7768 188.37 66.7768H200.17C201.634 66.7768 202.82 65.5904 202.82 64.1268V62.9968C202.82 61.5332 201.634 60.3468 200.17 60.3468Z" fill="#c3f9de"/>
<g style="mix-blend-mode:overlay">
<path d="M201.73 65.7068H189.87C188.17 65.7068 186.79 64.3268 186.79 62.6268V61.4368C186.79 61.1168 186.86 60.8168 186.99 60.5468C186.24 60.8868 185.72 61.6368 185.72 62.5068V63.6968C185.72 65.3968 187.1 66.7768 188.8 66.7768H200.66C201.53 66.7768 202.28 66.2568 202.62 65.5068C202.35 65.6268 202.05 65.7068 201.73 65.7068Z" fill="#cafbe2"/>
</g>
<path opacity="0.3" d="M199.73 60.3468H187.87C187 60.3468 186.25 60.8668 185.91 61.6168C186.18 61.4968 186.48 61.4168 186.8 61.4168H198.66C200.36 61.4168 201.74 62.7968 201.74 64.4968V65.6868C201.74 66.0068 201.67 66.3068 201.54 66.5768C202.29 66.2368 202.81 65.4868 202.81 64.6168V63.4268C202.81 61.7268 201.43 60.3468 199.73 60.3468Z" fill="white"/>
<path d="M200.17 73.1068H164.83C163.366 73.1068 162.18 74.2933 162.18 75.7568V76.8868C162.18 78.3504 163.366 79.5368 164.83 79.5368H200.17C201.634 79.5368 202.82 78.3504 202.82 76.8868V75.7568C202.82 74.2933 201.634 73.1068 200.17 73.1068Z" fill="#c3f9de"/>
<g style="mix-blend-mode:overlay">
<path d="M201.73 78.4668H166.33C164.63 78.4668 163.25 77.0868 163.25 75.3868V74.1968C163.25 73.8768 163.32 73.5768 163.45 73.3068C162.7 73.6468 162.18 74.3968 162.18 75.2668V76.4568C162.18 78.1568 163.56 79.5368 165.26 79.5368H200.66C201.53 79.5368 202.28 79.0168 202.62 78.2668C202.35 78.3868 202.05 78.4668 201.73 78.4668Z" fill="#cafbe2"/>
</g>
<path opacity="0.3" d="M199.73 73.1068H164.33C163.46 73.1068 162.71 73.6268 162.37 74.3768C162.64 74.2568 162.94 74.1768 163.26 74.1768H198.66C200.36 74.1768 201.74 75.5568 201.74 77.2568V78.4468C201.74 78.7668 201.67 79.0668 201.54 79.3368C202.29 78.9968 202.81 78.2468 202.81 77.3768V76.1868C202.81 74.4868 201.43 73.1068 199.73 73.1068Z" fill="white"/>
<path d="M43.33 167.817L31.19 180.307L41.56 169.637C42.69 168.467 44.24 167.787 45.86 167.737L83.38 166.527C87.79 166.387 91.29 162.767 91.29 158.357V133.367C91.29 129.377 88.15 126.087 84.16 125.907L20.36 123.027C16.36 122.847 13.02 126.037 13.02 130.047V163.807C13.02 166.437 15.19 168.557 17.83 168.487L29.05 168.197C30.23 168.167 31.21 169.117 31.2 170.297V180.317" fill="#F5F8FC"/>
<path d="M20.35 123.017L85.3 125.727C87.3 125.817 88.9 126.707 89.48 128.517C88.68 127.867 87.71 127.907 86.61 127.907L19.14 127.797C16.47 127.777 14.33 129.997 14.43 132.667L15.82 168.097C14.17 167.377 13 165.737 13 163.807V130.047C13 126.047 16.34 122.847 20.34 123.027L20.35 123.017Z" fill="white"/>
<g style="mix-blend-mode:overlay">
<path d="M42.88 165.627L78.9 160.877C82.38 160.417 85.09 157.617 85.43 154.127L88.11 126.877C88.11 126.667 88.14 127.077 88.11 126.877C90 127.487 91.28 131.287 91.28 133.367V158.357C91.28 162.767 87.78 166.377 83.37 166.527L45.74 167.747C44.18 167.797 42.69 168.427 41.57 169.517L31.99 178.817L31.18 177.397L40.75 166.767C41.3 166.157 42.05 165.757 42.87 165.647L42.88 165.627Z" fill="#cafbe2"/>
</g>
<path d="M20.35 123.017L84.15 125.897C88.14 126.077 91.28 129.367 91.28 133.357V158.347C91.28 162.757 87.78 166.367 83.37 166.517L45.85 167.727C44.22 167.777 42.68 168.457 41.55 169.627L33.28 178.137C32.52 178.927 31.18 178.387 31.18 177.287V170.277C31.18 169.097 30.21 168.147 29.03 168.177L17.81 168.467C15.18 168.537 13 166.417 13 163.787V130.027C13 126.027 16.34 122.827 20.34 123.007L20.35 123.017Z" stroke="url(#paint18_linear_2645_12174)" stroke-linecap="round" stroke-linejoin="round"/>
<path d="M18.36 133.307V140.197" stroke="white" stroke-width="2" stroke-linecap="round" stroke-linejoin="round"/>
<path d="M18.36 144.277V144.897" stroke="white" stroke-width="2" stroke-linecap="round" stroke-linejoin="round"/>
<g style="mix-blend-mode:overlay">
<path d="M71.1005 153.185C68.3947 153.185 66.2108 150.991 66.2108 148.296C66.2108 145.6 68.4053 143.406 71.1005 143.406C73.7956 143.406 75.9901 145.6 75.9901 148.296C75.9901 150.991 73.7956 153.185 71.1005 153.185Z" fill="#cafbe2"/>
</g>
<path d="M69.8756 151.96C67.1698 151.96 64.986 149.765 64.986 147.07C64.986 144.375 67.1804 142.18 69.8756 142.18C72.5708 142.18 74.7653 144.375 74.7653 147.07C74.7653 149.765 72.5708 151.96 69.8756 151.96Z" fill="#4ef09d"/>
<g style="mix-blend-mode:overlay" opacity="0.3">
<path d="M69.8756 142.181C71.4735 142.181 72.8904 142.959 73.7745 144.152C72.9543 143.545 71.9529 143.161 70.8557 143.161C68.1499 143.161 65.966 145.356 65.966 148.051C65.966 149.148 66.3389 150.149 66.9567 150.97C65.7636 150.075 64.986 148.669 64.986 147.06C64.986 144.354 67.1804 142.17 69.8756 142.17V142.181Z" fill="white"/>
</g>
<g style="mix-blend-mode:overlay">
<path d="M68.6499 150.746C71.3558 150.746 73.5396 148.562 73.5396 145.856C73.5396 144.812 73.2093 143.864 72.6554 143.065C73.9231 143.95 74.754 145.409 74.754 147.071C74.754 149.777 72.5702 151.961 69.8644 151.961C68.2025 151.961 66.7324 151.13 65.8589 149.862C66.6578 150.416 67.606 150.746 68.6499 150.746Z" fill="#cafbe2"/>
</g>
<g style="mix-blend-mode:overlay">
<path d="M48.4526 148.445C48.4526 150.554 50.1677 152.269 52.277 152.269C54.3863 152.269 56.1014 150.554 56.1014 148.445C56.1014 146.336 54.3863 144.62 52.277 144.62C50.1677 144.62 48.4526 146.336 48.4526 148.445Z" fill="#cafbe2"/>
</g>
<path d="M46.929 146.922C46.929 149.031 48.6441 150.746 50.7534 150.746C52.8626 150.746 54.5778 149.031 54.5778 146.922C54.5778 144.813 52.8626 143.098 50.7534 143.098C48.6441 143.098 46.929 144.813 46.929 146.922Z" fill="#4ef09d"/>
<g style="mix-blend-mode:overlay">
<path d="M49.2199 149.212C51.3291 149.212 53.0442 147.497 53.0442 145.388C53.0442 144.727 52.8631 144.12 52.5755 143.566C53.7686 144.205 54.5782 145.462 54.5782 146.911C54.5782 149.02 52.8631 150.735 50.7539 150.735C49.3051 150.735 48.0694 149.926 47.4089 148.733C47.9415 149.02 48.57 149.201 49.2305 149.201L49.2199 149.212Z" fill="#cafbe2"/>
</g>
<g style="mix-blend-mode:overlay">
<path d="M28.2545 148.296C28.2545 151.001 30.4383 153.185 33.1442 153.185C35.85 153.185 38.0338 151.001 38.0338 148.296C38.0338 145.59 35.85 143.406 33.1442 143.406C30.4383 143.406 28.2545 145.59 28.2545 148.296Z" fill="#cafbe2"/>
</g>
<path d="M27.0298 147.07C27.0298 149.776 29.2136 151.96 31.9194 151.96C34.6253 151.96 36.8091 149.776 36.8091 147.07C36.8091 144.364 34.6253 142.18 31.9194 142.18C29.2136 142.18 27.0298 144.364 27.0298 147.07Z" fill="#4ef09d"/>
<g style="mix-blend-mode:overlay">
<path d="M30.6947 150.746C33.4005 150.746 35.5843 148.562 35.5843 145.856C35.5843 144.812 35.2541 143.864 34.7001 143.065C35.9678 143.95 36.7987 145.409 36.7987 147.071C36.7987 149.777 34.6149 151.961 31.9091 151.961C30.2473 151.961 28.7772 151.13 27.9036 149.862C28.7026 150.416 29.6507 150.746 30.6947 150.746Z" fill="#cafbe2"/>
</g>
<g style="mix-blend-mode:overlay" opacity="0.3">
<path d="M31.9194 142.181C33.5174 142.181 34.9342 142.959 35.8184 144.152C34.9981 143.545 33.9967 143.161 32.8995 143.161C30.1937 143.161 28.0098 145.356 28.0098 148.051C28.0098 149.148 28.3827 150.149 29.0006 150.97C27.8074 150.075 27.0298 148.669 27.0298 147.06C27.0298 144.354 29.2243 142.17 31.9194 142.17V142.181Z" fill="white"/>
</g>
<path d="M266.2 262.417H4" stroke="url(#paint19_linear_2645_12174)" stroke-linecap="round" stroke-linejoin="round"/>
<rect width="18.9818" height="31.6364" transform="matrix(-1 0 0 1 92.8818 230.364)" fill="#FFBB00"/>
<rect opacity="0.4" width="18.9818" height="31.6364" transform="matrix(-1 0 0 1 92.8818 230.364)" stroke="url(#paint20_linear_2645_12174)" stroke-linecap="round" stroke-linejoin="round"/>
<path d="M11.6818 230.364L45.9545 204H64.6096L97.0999 230.364H79.2827H11.6818Z" fill="url(#paint21_linear_2645_12174)"/>
<g style="mix-blend-mode:overlay">
<path d="M78.1181 230.364L45.9545 204H64.409L97.0999 230.364H78.1181Z" fill="#6A6A6A"/>
</g>
<g style="mix-blend-mode:overlay">
<path fill-rule="evenodd" clip-rule="evenodd" d="M91.8695 226.146H72.972L70.3989 224.036H89.2542L91.8695 226.146ZM86.6389 221.927H67.8258L65.2528 219.818H84.0237L86.6389 221.927ZM81.4084 217.709H62.6797L60.1066 215.6H78.7931L81.4084 217.709ZM73.5626 211.382L76.1778 213.491H57.5335L54.9604 211.382H73.5626ZM49.8142 207.164H68.332L70.9473 209.273H52.3873L49.8142 207.164Z" fill="#040A1F" fill-opacity="0.38"/>
</g>
<path fill-rule="evenodd" clip-rule="evenodd" d="M94.7378 230.364L63.3545 205.055H47.241L45.9545 204H64.409L97.0999 230.364H94.7378Z" fill="white"/>
<path opacity="0.4" d="M45.9545 204L11.6818 230.364H78.2281M45.9545 204L78.2281 230.364M45.9545 204H64.6096L97.0999 230.364H78.2281" stroke="url(#paint22_linear_2645_12174)" stroke-linecap="round" stroke-linejoin="round"/>
<path opacity="0.4" d="M45.9545 204H64.409L97.0999 230.364H78.1181" stroke="url(#paint23_linear_2645_12174)" stroke-linecap="round" stroke-linejoin="round"/>
<path d="M16.9545 230.364L45.9545 208.218L73.8999 230.364V262H16.9545V230.364Z" fill="#FEEFD2"/>
<path fill-rule="evenodd" clip-rule="evenodd" d="M45.9545 208.218L16.9545 230.364V262H20.9953C19.3447 261.993 18.0089 260.652 18.0089 259V230.364L46.472 208.628L45.9545 208.218Z" fill="white"/>
<path opacity="0.4" d="M73.8999 262V230.364L45.9545 208.218L16.9545 230.364V262" stroke="url(#paint24_linear_2645_12174)" stroke-linecap="round" stroke-linejoin="round"/>
<path d="M30.6636 242.964C30.6636 242.411 31.1113 241.964 31.6636 241.964H59.1908C59.7431 241.964 60.1908 242.411 60.1908 242.964V262H30.6636V242.964Z" fill="#FDDDA0"/>
<path d="M78.1181 236.636C78.1181 236.084 78.5658 235.636 79.1181 235.636H87.6636C88.2158 235.636 88.6636 236.084 88.6636 236.636V243.073C88.6636 243.625 88.2158 244.073 87.6636 244.073H79.1181C78.5658 244.073 78.1181 243.625 78.1181 243.073V236.636Z" fill="#FEEFD2"/>
<path opacity="0.4" d="M78.1181 236.636C78.1181 236.084 78.5658 235.636 79.1181 235.636H87.6636C88.2158 235.636 88.6636 236.084 88.6636 236.636V243.073C88.6636 243.625 88.2158 244.073 87.6636 244.073H79.1181C78.5658 244.073 78.1181 243.625 78.1181 243.073V236.636Z" stroke="url(#paint25_linear_2645_12174)" stroke-linecap="round" stroke-linejoin="round"/>
<g style="mix-blend-mode:overlay">
<path fill-rule="evenodd" clip-rule="evenodd" d="M32.7727 241.964H31.6636C31.1113 241.964 30.6636 242.411 30.6636 242.964V262H60.1908V259.891H34.7727C33.6682 259.891 32.7727 258.995 32.7727 257.891V241.964Z" fill="#535353"/>
</g>
<path opacity="0.4" d="M60.1908 262V242.964C60.1908 242.411 59.7431 241.964 59.1908 241.964H31.6636C31.1113 241.964 30.6636 242.411 30.6636 242.964V262" stroke="url(#paint26_linear_2645_12174)" stroke-linecap="round" stroke-linejoin="round"/>
<circle cx="45.9545" cy="227.727" r="6.85455" fill="#FDDDA0"/>
<path fill-rule="evenodd" clip-rule="evenodd" d="M50.2454 233.073C51.8085 231.817 52.809 229.889 52.809 227.727C52.809 223.942 49.7401 220.873 45.9544 220.873C43.793 220.873 41.8652 221.873 40.6088 223.436C41.7834 222.492 43.2756 221.927 44.8998 221.927C48.6855 221.927 51.7543 224.996 51.7543 228.782C51.7543 230.406 51.1895 231.898 50.2454 233.073Z" fill="white"/>
<circle opacity="0.4" cx="45.9545" cy="227.727" r="6.85455" stroke="url(#paint27_linear_2645_12174)" stroke-linecap="round" stroke-linejoin="round"/>
<defs>
<filter id="filter0_b_2645_12174" x="91.639" y="117.639" width="73.0103" height="73.0103" filterUnits="userSpaceOnUse" color-interpolation-filters="sRGB">
<feFlood flood-opacity="0" result="BackgroundImageFix"/>
<feGaussianBlur in="BackgroundImageFix" stdDeviation="3.5"/>
<feComposite in2="SourceAlpha" operator="in" result="effect1_backgroundBlur_2645_12174"/>
<feBlend mode="normal" in="SourceGraphic" in2="effect1_backgroundBlur_2645_12174" result="shape"/>
</filter>
<filter id="filter1_b_2645_12174" x="83" y="191" width="115" height="79" filterUnits="userSpaceOnUse" color-interpolation-filters="sRGB">
<feFlood flood-opacity="0" result="BackgroundImageFix"/>
<feGaussianBlur in="BackgroundImageFix" stdDeviation="3.5"/>
<feComposite in2="SourceAlpha" operator="in" result="effect1_backgroundBlur_2645_12174"/>
<feBlend mode="normal" in="SourceGraphic" in2="effect1_backgroundBlur_2645_12174" result="shape"/>
</filter>
<filter id="filter2_b_2645_12174" x="239" y="216" width="37" height="37" filterUnits="userSpaceOnUse" color-interpolation-filters="sRGB">
<feFlood flood-opacity="0" result="BackgroundImageFix"/>
<feGaussianBlur in="BackgroundImageFix" stdDeviation="3.5"/>
<feComposite in2="SourceAlpha" operator="in" result="effect1_backgroundBlur_2645_12174"/>
<feBlend mode="normal" in="SourceGraphic" in2="effect1_backgroundBlur_2645_12174" result="shape"/>
</filter>
<linearGradient id="paint0_linear_2645_12174" x1="129.028" y1="124.024" x2="47.0672" y2="380.19" gradientUnits="userSpaceOnUse">
<stop stop-color="white" stop-opacity="0.25"/>
<stop offset="1" stop-color="white" stop-opacity="0"/>
</linearGradient>
<linearGradient id="paint1_linear_2645_12174" x1="94" y1="263" x2="80" y2="235" gradientUnits="userSpaceOnUse">
<stop stop-color="#D2DEF9"/>
<stop offset="1" stop-color="#D2DEF9" stop-opacity="0"/>
</linearGradient>
<linearGradient id="paint2_linear_2645_12174" x1="142.035" y1="197.21" x2="81.0161" y2="496.9" gradientUnits="userSpaceOnUse">
<stop stop-color="white" stop-opacity="0.25"/>
<stop offset="1" stop-color="white" stop-opacity="0"/>
</linearGradient>
<linearGradient id="paint3_linear_2645_12174" x1="254" y1="274.5" x2="224.5" y2="220" gradientUnits="userSpaceOnUse">
<stop stop-color="#D2DEF9"/>
<stop offset="1" stop-color="#D2DEF9" stop-opacity="0"/>
</linearGradient>
<linearGradient id="paint4_linear_2645_12174" x1="257.826" y1="223.403" x2="227.63" y2="317.78" gradientUnits="userSpaceOnUse">
<stop stop-color="white" stop-opacity="0.25"/>
<stop offset="1" stop-color="white" stop-opacity="0"/>
</linearGradient>
<linearGradient id="paint5_linear_2645_12174" x1="226.5" y1="147" x2="259.326" y2="160.475" gradientUnits="userSpaceOnUse">
<stop stop-color="#1B217C"/>
<stop offset="1" stop-color="#1B217C" stop-opacity="0"/>
</linearGradient>
<linearGradient id="paint6_linear_2645_12174" x1="233.22" y1="140.74" x2="218.454" y2="192.056" gradientUnits="userSpaceOnUse">
<stop stop-color="#1B217C"/>
<stop offset="1" stop-color="#1B217C" stop-opacity="0"/>
</linearGradient>
<linearGradient id="paint7_linear_2645_12174" x1="217.5" y1="112.5" x2="207.5" y2="205.5" gradientUnits="userSpaceOnUse">
<stop stop-color="#1B217C"/>
<stop offset="1" stop-color="#1B217C" stop-opacity="0"/>
</linearGradient>
<linearGradient id="paint8_linear_2645_12174" x1="217.5" y1="115" x2="194.547" y2="177.495" gradientUnits="userSpaceOnUse">
<stop stop-color="#1B217C"/>
<stop offset="1" stop-color="#1B217C" stop-opacity="0"/>
</linearGradient>
<linearGradient id="paint9_linear_2645_12174" x1="194.5" y1="104" x2="176.5" y2="203" gradientUnits="userSpaceOnUse">
<stop offset="0.116712" stop-color="#1B217C"/>
<stop offset="1" stop-color="#1B217C" stop-opacity="0"/>
</linearGradient>
<linearGradient id="paint10_linear_2645_12174" x1="166.64" y1="192.547" x2="166.64" y2="262.417" gradientUnits="userSpaceOnUse">
<stop stop-color="#cafbe2"/>
<stop offset="1" stop-color="#cafbe2"/>
</linearGradient>
<linearGradient id="paint11_linear_2645_12174" x1="139.984" y1="265.685" x2="130" y2="159.5" gradientUnits="userSpaceOnUse">
<stop stop-color="#1B217C"/>
<stop offset="1" stop-color="#1B217C" stop-opacity="0"/>
</linearGradient>
<linearGradient id="paint12_linear_2645_12174" x1="144" y1="200.5" x2="132.5" y2="178" gradientUnits="userSpaceOnUse">
<stop stop-color="#1B217C"/>
<stop offset="1" stop-color="#1B217C" stop-opacity="0"/>
</linearGradient>
<linearGradient id="paint13_linear_2645_12174" x1="117.779" y1="192.772" x2="118.366" y2="185.754" gradientUnits="userSpaceOnUse">
<stop stop-color="#1B217C"/>
<stop offset="1" stop-color="#1B217C" stop-opacity="0"/>
</linearGradient>
<linearGradient id="paint14_linear_2645_12174" x1="253.5" y1="204.5" x2="248.89" y2="216.609" gradientUnits="userSpaceOnUse">
<stop stop-color="#1B217C"/>
<stop offset="1" stop-color="#1B217C" stop-opacity="0"/>
</linearGradient>
<linearGradient id="paint15_linear_2645_12174" x1="212" y1="148" x2="214.093" y2="163.963" gradientUnits="userSpaceOnUse">
<stop stop-color="#1B217C"/>
<stop offset="1" stop-color="#1B217C" stop-opacity="0"/>
</linearGradient>
<linearGradient id="paint16_linear_2645_12174" x1="242.976" y1="189.279" x2="191.762" y2="241.608" gradientUnits="userSpaceOnUse">
<stop stop-color="#1B217C"/>
<stop offset="1" stop-color="#1B217C" stop-opacity="0"/>
</linearGradient>
<linearGradient id="paint17_linear_2645_12174" x1="138.51" y1="113.225" x2="172.879" y2="-1.46144" gradientUnits="userSpaceOnUse">
<stop stop-color="#1B217C"/>
<stop offset="1" stop-color="#1B217C" stop-opacity="0"/>
</linearGradient>
<linearGradient id="paint18_linear_2645_12174" x1="-19.9702" y1="213.67" x2="94.0087" y2="120.509" gradientUnits="userSpaceOnUse">
<stop stop-color="#1B217C"/>
<stop offset="1" stop-color="#1B217C" stop-opacity="0"/>
</linearGradient>
<linearGradient id="paint19_linear_2645_12174" x1="266" y1="265.5" x2="-4" y2="265" gradientUnits="userSpaceOnUse">
<stop stop-color="#1B217C" stop-opacity="0.1"/>
<stop offset="0.173409" stop-color="#1B217C"/>
<stop offset="0.664599" stop-color="#1B217C" stop-opacity="0.8"/>
<stop offset="1" stop-color="#1B217C" stop-opacity="0"/>
</linearGradient>
<linearGradient id="paint20_linear_2645_12174" x1="5.1639" y1="27.8511" x2="4.49725" y2="-9.29644" gradientUnits="userSpaceOnUse">
<stop stop-color="#1B217C"/>
<stop offset="1" stop-color="#1B217C" stop-opacity="0"/>
</linearGradient>
<linearGradient id="paint21_linear_2645_12174" x1="50.3028" y1="202.553" x2="51.7323" y2="231.968" gradientUnits="userSpaceOnUse">
<stop stop-color="#FFC122"/>
<stop offset="1" stop-color="#F17B39"/>
</linearGradient>
<linearGradient id="paint22_linear_2645_12174" x1="34.9193" y1="227.209" x2="34.8164" y2="196.243" gradientUnits="userSpaceOnUse">
<stop stop-color="#1B217C"/>
<stop offset="1" stop-color="#1B217C" stop-opacity="0"/>
</linearGradient>
<linearGradient id="paint23_linear_2645_12174" x1="59.8683" y1="227.209" x2="59.6964" y2="196.244" gradientUnits="userSpaceOnUse">
<stop stop-color="#1B217C"/>
<stop offset="1" stop-color="#1B217C" stop-opacity="0"/>
</linearGradient>
<linearGradient id="paint24_linear_2645_12174" x1="32.4462" y1="255.565" x2="31.8038" y2="192.4" gradientUnits="userSpaceOnUse">
<stop stop-color="#1B217C"/>
<stop offset="1" stop-color="#1B217C" stop-opacity="0"/>
</linearGradient>
<linearGradient id="paint25_linear_2645_12174" x1="80.9869" y1="243.063" x2="80.9016" y2="233.155" gradientUnits="userSpaceOnUse">
<stop stop-color="#1B217C"/>
<stop offset="1" stop-color="#1B217C" stop-opacity="0"/>
</linearGradient>
<linearGradient id="paint26_linear_2645_12174" x1="38.6963" y1="259.603" x2="38.5244" y2="236.07" gradientUnits="userSpaceOnUse">
<stop stop-color="#1B217C"/>
<stop offset="1" stop-color="#1B217C" stop-opacity="0"/>
</linearGradient>
<linearGradient id="paint27_linear_2645_12174" x1="42.8294" y1="232.942" x2="42.656" y2="216.841" gradientUnits="userSpaceOnUse">
<stop stop-color="#1B217C"/>
<stop offset="1" stop-color="#1B217C" stop-opacity="0"/>
</linearGradient>
</defs>
</svg>
