<svg width="305" height="281" viewBox="0 0 305 281" fill="none" xmlns="http://www.w3.org/2000/svg">
<path opacity="0.3" d="M153.5 43.9608H150.5C88.0918 43.9608 37.5 94.5526 37.5 156.961V256.961H266.5V156.961C266.5 94.5526 215.908 43.9608 153.5 43.9608Z" fill="#008FFF" fill-opacity="0.1"/>
<path opacity="0.87" d="M153.5 43.9608H150.5C88.0918 43.9608 37.5 94.5526 37.5 156.961V256.961H266.5V156.961C266.5 94.5526 215.908 43.9608 153.5 43.9608Z" stroke="#040A1F" stroke-opacity="0.87" stroke-linecap="round" stroke-linejoin="round"/>
<path opacity="0.5" d="M271.5 255.961V157.964C271.5 92.2405 217.998 38.9608 152 38.9608C86.002 38.9608 32.5 92.2405 32.5 157.964V255.961" stroke="#040A1F" stroke-opacity="0.38" stroke-linecap="round" stroke-linejoin="round" stroke-dasharray="3 3"/>
<path d="M20.5 256.961L38 256.961M284.5 256.961L50.3053 256.961M42.8962 256.961L46 256.961" stroke="#040A1F" stroke-opacity="0.87" stroke-linecap="round" stroke-linejoin="round"/>
<rect width="126.079" height="123.453" rx="12" transform="matrix(-0.996825 -0.0796228 -0.0796228 0.996825 242.473 112.14)" fill="#02a67f"/>
<rect opacity="0.87" width="126.079" height="123.453" rx="11.6616" transform="matrix(-0.996825 -0.0796228 -0.0796228 0.996825 242.473 112.14)" stroke="#040A1F" stroke-opacity="0.87" stroke-linecap="round" stroke-linejoin="round"/>
<rect width="126.079" height="123.453" rx="11" transform="matrix(-0.996825 -0.0796228 -0.0796228 0.996825 234.62 111.513)" fill="#cafbe2"/>
<path fill-rule="evenodd" clip-rule="evenodd" d="M232.398 116.812C230.643 115.409 228.464 114.498 226.055 114.306L123.625 106.124C117.205 105.611 111.585 110.4 111.072 116.82L103.1 216.632C102.918 218.904 103.401 221.076 104.385 222.957C101.461 220.621 99.7117 216.922 100.032 212.91L108.005 113.099C108.518 106.679 114.138 101.89 120.558 102.403L222.988 110.585C227.135 110.916 230.602 113.379 232.398 116.812Z" fill="white"/>
<rect x="137.229" y="209.135" width="23.6399" height="52.533" rx="6" transform="rotate(-175.433 137.229 209.135)" fill="#02a67f"/>
<rect width="105.066" height="26.2665" rx="6" transform="matrix(-0.996825 -0.0796228 -0.0796228 0.996825 223.311 121.149)" fill="#FAFCFF"/>
<path fill-rule="evenodd" clip-rule="evenodd" d="M222.869 126.407C222.692 126.377 222.512 126.354 222.33 126.339L129.222 118.902C126.012 118.646 123.202 121.04 122.945 124.25L121.782 138.809C121.768 138.995 121.762 139.18 121.764 139.363C118.83 138.854 116.713 136.182 116.955 133.154L118.118 118.596C118.374 115.386 121.185 112.991 124.395 113.248L217.502 120.685C220.526 120.926 222.826 123.434 222.869 126.407Z" fill="white"/>
<path fill-rule="evenodd" clip-rule="evenodd" d="M220.037 121.494C220.364 122.306 220.512 123.203 220.438 124.134L219.275 138.692C219.019 141.902 216.209 144.297 212.999 144.04L119.891 136.603C118.964 136.529 118.104 136.242 117.357 135.794C118.158 137.78 120.025 139.249 122.304 139.431L215.412 146.868C218.622 147.124 221.432 144.73 221.689 141.52L222.852 126.961C223.034 124.679 221.876 122.598 220.037 121.494Z" fill="#CCE6FF"/>
<rect width="105.066" height="26.2665" rx="5.8308" transform="matrix(-0.996825 -0.0796228 -0.0796228 0.996825 223.311 121.149)" stroke="#040A1F" stroke-opacity="0.6" stroke-linecap="round" stroke-linejoin="round"/>
<rect x="131.989" y="208.716" width="18.3866" height="52.533" rx="6" transform="rotate(-175.433 131.989 208.716)" fill="#FAFCFF"/>
<path fill-rule="evenodd" clip-rule="evenodd" d="M126.177 208.253C129.387 208.509 132.197 206.115 132.454 202.905L135.708 162.163C135.964 158.953 133.57 156.143 130.36 155.887L123.656 155.351C122.874 155.289 122.116 155.383 121.413 155.609L127.748 156.115C130.959 156.371 133.353 159.181 133.097 162.392L129.842 203.133C129.648 205.561 127.993 207.523 125.809 208.223L126.177 208.253Z" fill="#CCE6FF"/>
<path fill-rule="evenodd" clip-rule="evenodd" d="M119.808 207.744C117.784 206.698 116.479 204.511 116.672 202.098L119.997 160.47C120.191 158.043 121.844 156.082 124.027 155.381L123.654 155.351C120.444 155.095 117.634 157.489 117.378 160.699L114.123 201.441C113.867 204.651 116.261 207.461 119.471 207.717L119.808 207.744Z" fill="white"/>
<path d="M121.552 176.677C120.733 176.736 120.08 177.382 120.013 178.2C119.947 179.003 120.466 179.738 121.245 179.944L124.667 180.849C124.88 180.906 125.101 180.927 125.321 180.911L128.818 180.66C129.636 180.601 130.29 179.955 130.357 179.137C130.423 178.334 129.903 177.599 129.125 177.393L125.703 176.488C125.49 176.431 125.269 176.411 125.048 176.426L121.552 176.677Z" fill="#cafbe2"/>
<path d="M121.204 183.392C120.437 183.447 119.8 184.004 119.642 184.757C119.455 185.653 120.002 186.539 120.887 186.773L124.075 187.617C124.289 187.674 124.51 187.694 124.73 187.679L128.353 187.419C129.12 187.364 129.758 186.807 129.915 186.054C130.102 185.158 129.555 184.272 128.67 184.038L125.482 183.194C125.268 183.138 125.047 183.117 124.827 183.133L121.204 183.392Z" fill="#cafbe2"/>
<rect opacity="0.87" x="131.989" y="208.716" width="18.3866" height="52.533" rx="5.8308" transform="rotate(-175.433 131.989 208.716)" stroke="#040A1F" stroke-opacity="0.87" stroke-linecap="round" stroke-linejoin="round"/>
<rect x="218.287" y="183.989" width="28.8932" height="23.6399" rx="6" transform="rotate(-175.433 218.287 183.989)" fill="#02a67f"/>
<rect x="179.008" y="180.853" width="28.8932" height="23.6399" rx="6" transform="rotate(-175.433 179.008 180.853)" fill="#02a67f"/>
<rect x="176.295" y="214.89" width="28.8932" height="23.6399" rx="6" transform="rotate(-175.433 176.295 214.89)" fill="#02a67f"/>
<rect x="215.567" y="218.027" width="28.8932" height="23.6399" rx="6" transform="rotate(-175.433 215.567 218.027)" fill="#02a67f"/>
<rect x="213.058" y="183.57" width="28.8932" height="23.6399" rx="6" transform="rotate(-175.433 213.058 183.57)" fill="#FAFCFF"/>
<path fill-rule="evenodd" clip-rule="evenodd" d="M207.23 183.108C210.441 183.364 213.251 180.97 213.507 177.76L214.461 165.82C214.717 162.61 212.323 159.799 209.113 159.543L191.936 158.171C191.154 158.108 190.395 158.203 189.691 158.429L206.498 159.772C209.708 160.028 212.102 162.838 211.846 166.048L210.892 177.989C210.698 180.416 209.044 182.377 206.86 183.078L207.23 183.108Z" fill="#CCE6FF"/>
<path fill-rule="evenodd" clip-rule="evenodd" d="M188.327 181.321C187.495 180.221 187.048 178.824 187.166 177.341L188.288 163.289C188.482 160.861 190.137 158.9 192.321 158.199L191.951 158.17C188.741 157.913 185.931 160.308 185.674 163.518L184.721 175.458C184.513 178.053 186.039 180.387 188.327 181.321Z" fill="white"/>
<path fill-rule="evenodd" clip-rule="evenodd" d="M197.616 164.747C197.612 163.577 198.609 162.653 199.776 162.747L200.679 162.819C201.845 162.912 202.683 163.982 202.493 165.137L202.231 166.733C202.062 167.76 202.71 168.745 203.72 168.997L206.284 169.638C207.019 169.822 207.513 170.51 207.453 171.266C207.393 172.021 206.795 172.622 206.04 172.687L202.735 172.97C201.823 173.048 201.08 173.735 200.932 174.638L200.494 177.301C200.374 178.034 199.712 178.552 198.972 178.493C198.232 178.433 197.661 177.817 197.659 177.075L197.649 174.377C197.646 173.461 197.022 172.665 196.134 172.443L192.913 171.638C192.178 171.455 191.683 170.766 191.743 170.011C191.804 169.255 192.401 168.654 193.156 168.59L195.793 168.364C196.83 168.275 197.626 167.405 197.622 166.364L197.616 164.747Z" fill="#cafbe2"/>
<rect opacity="0.87" x="213.058" y="183.57" width="28.8932" height="23.6399" rx="5.8308" transform="rotate(-175.433 213.058 183.57)" stroke="#040A1F" stroke-opacity="0.87" stroke-linecap="round" stroke-linejoin="round"/>
<rect x="173.786" y="180.433" width="28.8932" height="23.6399" rx="6" transform="rotate(-175.433 173.786 180.433)" fill="#FAFCFF"/>
<path fill-rule="evenodd" clip-rule="evenodd" d="M167.964 179.97C171.174 180.226 173.984 177.832 174.241 174.622L175.194 162.681C175.451 159.471 173.056 156.661 169.846 156.405L152.67 155.033C151.887 154.97 151.129 155.065 150.425 155.291L167.231 156.634C170.441 156.89 172.836 159.7 172.579 162.91L171.626 174.85C171.432 177.278 169.777 179.239 167.594 179.94L167.964 179.97Z" fill="#CCE6FF"/>
<path fill-rule="evenodd" clip-rule="evenodd" d="M152.398 178.726C149.69 178.043 147.79 175.487 148.02 172.609L149.015 160.151C149.208 157.725 150.862 155.764 153.044 155.063L152.671 155.033C149.461 154.776 146.651 157.171 146.394 160.381L145.44 172.321C145.184 175.531 147.578 178.341 150.788 178.598L152.398 178.726Z" fill="white"/>
<path d="M166.763 169.55C167.518 169.485 168.116 168.884 168.176 168.128C168.237 167.373 167.742 166.685 167.007 166.501L160.854 164.963C160.64 164.91 160.418 164.892 160.198 164.911L153.879 165.452C153.124 165.517 152.527 166.118 152.466 166.873C152.406 167.629 152.901 168.317 153.636 168.501L159.789 170.038C160.003 170.092 160.224 170.11 160.444 170.091L166.763 169.55Z" fill="#cafbe2"/>
<rect opacity="0.87" x="173.786" y="180.433" width="28.8932" height="23.6399" rx="5.8308" transform="rotate(-175.433 173.786 180.433)" stroke="#040A1F" stroke-opacity="0.87" stroke-linecap="round" stroke-linejoin="round"/>
<rect x="171.054" y="214.472" width="28.8932" height="23.6399" rx="6" transform="rotate(-175.433 171.054 214.472)" fill="#FAFCFF"/>
<path fill-rule="evenodd" clip-rule="evenodd" d="M165.243 214.008C168.453 214.264 171.264 211.87 171.52 208.66L172.474 196.719C172.73 193.509 170.336 190.699 167.126 190.443L149.949 189.071C149.166 189.008 148.408 189.103 147.704 189.329L164.511 190.672C167.721 190.928 170.115 193.738 169.859 196.948L168.905 208.888C168.711 211.316 167.057 213.277 164.873 213.978L165.243 214.008Z" fill="#CCE6FF"/>
<path fill-rule="evenodd" clip-rule="evenodd" d="M148.35 212.658C146.35 211.604 145.063 209.43 145.255 207.034L146.281 194.191C146.475 191.762 148.131 189.8 150.316 189.1L149.95 189.071C146.74 188.815 143.93 191.209 143.673 194.419L142.72 206.359C142.463 209.569 144.858 212.38 148.068 212.636L148.35 212.658Z" fill="white"/>
<path fill-rule="evenodd" clip-rule="evenodd" d="M152.366 197.78C151.762 197.074 151.887 196.002 152.638 195.454C153.217 195.031 154.007 195.046 154.569 195.491L156.829 197.277C157.487 197.797 158.399 197.851 159.114 197.413L162.303 195.46C162.949 195.065 163.787 195.194 164.283 195.767C164.78 196.339 164.79 197.187 164.307 197.771L162.191 200.329C161.608 201.034 161.578 202.045 162.118 202.784L163.688 204.931C164.139 205.548 164.042 206.407 163.465 206.908C162.913 207.387 162.092 207.387 161.539 206.907L159.335 204.992C158.676 204.42 157.723 204.341 156.979 204.797L154.36 206.401C153.714 206.796 152.876 206.667 152.379 206.094C151.883 205.522 151.873 204.674 152.356 204.09L153.942 202.172C154.562 201.423 154.553 200.336 153.921 199.598L152.366 197.78Z" fill="#cafbe2"/>
<rect opacity="0.87" x="171.054" y="214.472" width="28.8932" height="23.6399" rx="5.8308" transform="rotate(-175.433 171.054 214.472)" stroke="#040A1F" stroke-opacity="0.87" stroke-linecap="round" stroke-linejoin="round"/>
<rect x="210.334" y="217.609" width="28.8932" height="23.6399" rx="6" transform="rotate(-175.433 210.334 217.609)" fill="#FAFCFF"/>
<path fill-rule="evenodd" clip-rule="evenodd" d="M204.516 217.145C207.726 217.401 210.537 215.007 210.793 211.797L211.747 199.857C212.003 196.647 209.609 193.837 206.399 193.58L189.222 192.208C188.439 192.146 187.681 192.241 186.977 192.467L203.784 193.809C206.994 194.065 209.388 196.875 209.132 200.086L208.178 212.026C207.984 214.453 206.33 216.415 204.146 217.115L204.516 217.145Z" fill="#CCE6FF"/>
<path fill-rule="evenodd" clip-rule="evenodd" d="M186.219 215.573C185.021 214.404 184.333 212.731 184.477 210.933L185.564 197.327C185.757 194.9 187.411 192.939 189.594 192.238L189.223 192.208C186.013 191.952 183.203 194.346 182.947 197.556L181.993 209.496C181.767 212.32 183.592 214.833 186.219 215.573Z" fill="white"/>
<path d="M192.002 203.067C191.188 203.122 190.543 203.777 190.501 204.591C190.46 205.388 191.008 206.095 191.79 206.254L196.532 207.214C196.707 207.249 196.886 207.261 197.064 207.249L201.85 206.925C202.664 206.87 203.308 206.216 203.35 205.401C203.391 204.604 202.843 203.897 202.061 203.739L197.319 202.779C197.144 202.743 196.965 202.732 196.787 202.744L192.002 203.067Z" fill="#cafbe2"/>
<path d="M194.648 210.88C194.798 211.957 195.793 212.71 196.87 212.56C197.948 212.411 198.7 211.416 198.551 210.338C198.401 209.26 197.406 208.508 196.329 208.658C195.251 208.807 194.499 209.802 194.648 210.88Z" fill="#cafbe2"/>
<path d="M195.709 199.462C195.858 200.54 196.853 201.292 197.931 201.143C199.009 200.993 199.761 199.998 199.611 198.921C199.462 197.843 198.467 197.09 197.389 197.24C196.312 197.39 195.559 198.385 195.709 199.462Z" fill="#cafbe2"/>
<rect opacity="0.87" x="210.334" y="217.609" width="28.8932" height="23.6399" rx="5.8308" transform="rotate(-175.433 210.334 217.609)" stroke="#040A1F" stroke-opacity="0.87" stroke-linecap="round" stroke-linejoin="round"/>
<path opacity="0.87" d="M105.148 148.961L108.013 113.098C108.526 106.678 114.146 101.89 120.566 102.402L222.996 110.584C229.416 111.097 234.205 116.717 233.692 123.137L225.719 222.949C225.206 229.369 219.586 234.158 213.166 233.645L108.503 225.285M101.714 191.961L100.795 203.461" stroke="#040A1F" stroke-opacity="0.87" stroke-linecap="round" stroke-linejoin="round"/>
<path d="M63.5585 178.266C70.7705 190.788 84.8343 196.206 94.9709 190.367L98.9447 188.078L72.8278 142.733L68.854 145.022C58.7173 150.86 56.3465 165.744 63.5585 178.266Z" fill="#01c596"/>
<path opacity="0.87" d="M72.8278 142.733L68.854 145.022C58.7173 150.86 56.3465 165.744 63.5585 178.266C70.7705 190.788 84.8343 196.206 94.9709 190.367L98.9447 188.078" stroke="#040A1F" stroke-opacity="0.87" stroke-linecap="round" stroke-linejoin="round"/>
<ellipse cx="86.2379" cy="165.208" rx="21.1806" ry="26.1642" transform="rotate(-29.9402 86.2379 165.208)" fill="#D2DEF9"/>
<ellipse cx="86.2379" cy="165.208" rx="21.1806" ry="26.1642" transform="rotate(-29.9402 86.2379 165.208)" fill="#cafbe2"/>
<path fill-rule="evenodd" clip-rule="evenodd" d="M105.18 182.333C110.012 175.096 110.082 164.18 104.585 154.636C97.3733 142.115 83.3094 136.697 73.1728 142.535C69.9968 144.364 67.5832 147.081 65.9878 150.336C67.4957 148.077 69.4672 146.177 71.8781 144.789C82.0147 138.95 96.0785 144.368 103.291 156.89C108.243 165.488 108.677 175.2 105.18 182.333Z" fill="white"/>
<ellipse opacity="0.87" cx="86.2379" cy="165.208" rx="21.1806" ry="26.1642" transform="rotate(-29.9402 86.2379 165.208)" stroke="#040A1F" stroke-opacity="0.87" stroke-linecap="round" stroke-linejoin="round"/>
<path d="M99.9474 157.311C106.078 167.954 104.957 180.091 97.4435 184.418C89.9305 188.745 78.8705 183.625 72.7403 172.981C66.6101 162.338 67.7311 150.202 75.2441 145.874C82.7572 141.547 93.8172 146.668 99.9474 157.311Z" fill="#F0F7FF"/>
<path fill-rule="evenodd" clip-rule="evenodd" d="M103.902 171.369C103.926 166.917 102.632 161.971 99.9475 157.31C93.8173 146.667 82.7573 141.547 75.2443 145.874C70.3165 148.712 68.1386 154.91 68.953 161.842C68.984 156.127 71.1875 151.227 75.4108 148.794C82.9238 144.467 93.9839 149.587 100.114 160.231C102.223 163.893 103.474 167.732 103.902 171.369Z" fill="white"/>
<path fill-rule="evenodd" clip-rule="evenodd" d="M84.8712 146.413C83.8954 146.342 82.934 146.372 81.9984 146.509L74.2194 172.723C74.5831 173.494 74.9835 174.261 75.4207 175.02C75.6535 175.424 75.8934 175.82 76.14 176.208L84.8712 146.413ZM81.7359 182.743C80.4957 181.672 79.3116 180.451 78.2121 179.093L87.6832 146.889C89.1033 147.262 90.5305 147.832 91.9315 148.586L82.3586 181.699C82.2348 182.125 82.0151 182.474 81.7359 182.743Z" fill="white"/>
<path fill-rule="evenodd" clip-rule="evenodd" d="M103.477 175.464C102.461 178.563 100.597 181.091 97.9231 182.631C90.4101 186.958 79.3501 181.838 73.2199 171.195C69.677 165.044 68.5561 158.394 69.6913 153.041C67.8523 158.65 68.7924 166.125 72.7411 172.981C78.8713 183.624 89.9313 188.744 97.4443 184.417C100.615 182.591 102.648 179.373 103.477 175.464Z" fill="#040A1F" fill-opacity="0.87"/>
<path opacity="0.87" d="M99.9474 157.311C106.078 167.954 104.957 180.091 97.4435 184.418C89.9305 188.745 78.8705 183.625 72.7403 172.981C66.6101 162.338 67.7311 150.202 75.2441 145.874C82.7572 141.547 93.8172 146.668 99.9474 157.311Z" stroke="#040A1F" stroke-opacity="0.38" stroke-linecap="round" stroke-linejoin="round"/>
<rect x="50.4041" y="200.465" width="54.7438" height="15.2066" rx="1.19074" transform="rotate(7.18497 50.4041 200.465)" fill="#02a67f"/>
<path fill-rule="evenodd" clip-rule="evenodd" d="M51.238 200.57C50.7774 200.512 50.357 200.838 50.2989 201.299L48.6072 214.718C48.5492 215.179 48.8755 215.599 49.336 215.657L49.4117 215.667C50.0642 215.749 50.6598 215.287 50.7421 214.635L52.1263 203.654C52.1844 203.193 52.6048 202.867 53.0654 202.925L103.273 209.254C103.925 209.337 104.521 208.874 104.603 208.222L104.613 208.146C104.671 207.685 104.345 207.265 103.884 207.207L51.238 200.57Z" fill="white"/>
<g style="mix-blend-mode:overlay">
<path fill-rule="evenodd" clip-rule="evenodd" d="M48.607 214.72L49.0293 211.37L56.8673 212.358L57.8473 204.584L59.9385 204.848L58.9585 212.622L63.1371 213.149L64.117 205.375L66.2082 205.639L65.2283 213.412L69.4111 213.94L70.3909 206.167L72.4821 206.431L71.5023 214.203L75.6809 214.73L76.6606 206.958L78.7518 207.222L77.7721 214.994L81.9629 215.522L82.9428 207.749L85.0341 208.013L84.0542 215.786L88.2327 216.312L89.2126 208.54L91.3038 208.803L90.3239 216.576L94.5025 217.103L95.4823 209.331L97.5735 209.594L96.5937 217.366L100.42 217.849C100.881 217.907 101.301 217.581 101.36 217.12L102.629 207.051L103.884 207.209C104.344 207.267 104.671 207.687 104.613 208.148L102.921 221.567C102.863 222.028 102.442 222.354 101.982 222.296L49.3358 215.659C48.8752 215.601 48.5489 215.181 48.607 214.72Z" fill="#393939"/>
</g>
<rect opacity="0.87" x="50.4041" y="200.465" width="54.7438" height="15.2066" rx="3" transform="rotate(7.18497 50.4041 200.465)" stroke="#040A1F" stroke-opacity="0.87" stroke-linecap="round" stroke-linejoin="round"/>
<rect x="50.0962" y="241.336" width="55.3741" height="15.3817" rx="3" fill="#02a67f"/>
<g style="mix-blend-mode:overlay">
<path fill-rule="evenodd" clip-rule="evenodd" d="M50.0967 242.177C50.0967 241.713 50.473 241.336 50.9372 241.336H104.63C105.095 241.336 105.471 241.713 105.471 242.177V255.878C105.471 256.342 105.095 256.718 104.63 256.718H101.208V246.442C101.208 245.977 100.831 245.601 100.367 245.601H96.9132V254.734H93.8929V245.601H90.8725V254.734H87.8521V245.601H84.8317V254.734H81.8114V245.601H78.7868V254.734H75.7665V245.601H72.7461V254.734H69.7257V245.601H66.7137V254.734H63.6933V245.601H60.6688V254.734H57.6484V245.601H50.0967V242.177Z" fill="#393939"/>
</g>
<rect opacity="0.87" x="50.0962" y="241.336" width="55.3741" height="15.3817" rx="3" stroke="#040A1F" stroke-opacity="0.87" stroke-linecap="round" stroke-linejoin="round"/>
<rect x="50.0962" y="226.629" width="55.3741" height="15.3817" rx="3" fill="#02a67f"/>
<g style="mix-blend-mode:overlay">
<path fill-rule="evenodd" clip-rule="evenodd" d="M50.0967 227.47C50.0967 227.006 50.473 226.629 50.9372 226.629H104.63C105.095 226.629 105.471 227.006 105.471 227.47V241.17C105.471 241.635 105.095 242.011 104.63 242.011H101.208V231.734C101.208 231.27 100.831 230.894 100.367 230.894H96.9132V240.027H93.8929V230.894H90.8725V240.027H87.8521V230.894H84.8317V240.027H81.8114V230.894H78.7868V240.027H75.7665V230.894H72.7461V240.027H69.7257V230.894H66.7137V240.027H63.6933V230.894H60.6688V240.027H57.6484V230.894H50.0967V227.47Z" fill="#393939"/>
</g>
<rect opacity="0.87" x="50.0962" y="226.629" width="55.3741" height="15.3817" rx="3" stroke="#040A1F" stroke-opacity="0.87" stroke-linecap="round" stroke-linejoin="round"/>
</svg>
