<svg width="64" height="64" viewBox="0 0 64 64" fill="none" xmlns="http://www.w3.org/2000/svg">
<circle cx="32" cy="32" r="32" fill="#E1F3FF"/>
<circle cx="32" cy="32" r="31.5" stroke="#040A1F" stroke-opacity="0.38"/>
<mask id="mask0_3793_6256" style="mask-type:alpha" maskUnits="userSpaceOnUse" x="0" y="0" width="64" height="64">
<circle cx="32" cy="32" r="32" fill="#E1F3FF"/>
<circle cx="32" cy="32" r="31.6667" stroke="#040A1F" stroke-opacity="0.38" stroke-width="0.666667"/>
</mask>
<g mask="url(#mask0_3793_6256)">
<path d="M31.9259 39.5372L30.5222 44.0415L31.0837 45.1676L40.9096 44.8861L44.5592 28.2762L43.4362 28.5578L40.3481 37.848L31.9259 39.5372Z" fill="#FAFAFA"/>
<path fill-rule="evenodd" clip-rule="evenodd" d="M32.1055 39.2044H36.0794C37.7031 39.2044 39.2247 38.6483 40.4354 37.6939C37.0354 42.0587 32.6886 42.5517 30.9697 42.2795L32.1055 39.2044Z" fill="#EEEEEE"/>
<path d="M32.0175 39.4138L30.3584 44.0352M44.5599 28.2762L41.098 43.9365" stroke="#040A1F" stroke-opacity="0.6" stroke-width="0.666667" stroke-linecap="round" stroke-linejoin="round"/>
<path fill-rule="evenodd" clip-rule="evenodd" d="M23.4384 36.8809H32.572C35.3926 36.8809 37.8803 35.0344 38.6973 32.3347L42.0031 21.4115C42.1041 21.0779 42.1694 20.7439 42.2018 20.4132C44.2876 21.5101 45.4727 23.994 44.716 26.4554L42.1857 34.6852C41.3599 37.3713 38.879 39.2044 36.0689 39.2044H26.9132C22.6016 39.2044 19.8752 38.2942 18.5288 36.3025C19.8517 36.6934 21.4818 36.8809 23.4384 36.8809Z" fill="#F5F5F5"/>
<path d="M35.9066 39.5096H26.291C17.6601 39.5096 15.4521 35.7115 17.9849 26.6704C18.2463 25.7371 20.4417 19.4984 21.2801 17.0845L21.5723 16.2345L41.5486 19.2208L44.1542 22.5058L41.5044 33.6872C41.1502 35.182 40.5567 36.6097 39.747 37.9151C38.7382 38.914 37.375 39.5096 35.9066 39.5096Z" fill="white"/>
<path d="M18.6421 26.8057C16.0811 35.684 17.3238 39.4137 26.0511 39.4137H36.764C38.2487 39.4137 39.6272 38.8289 40.6472 37.8479M18.6421 26.8057C18.951 25.735 20.355 21.9533 20.696 20.9565L18.6421 26.8057Z" stroke="#040A1F" stroke-opacity="0.6" stroke-width="0.666667" stroke-linecap="round" stroke-linejoin="round"/>
<path d="M28.14 45.8316L27.9844 46.5598C27.7759 47.5354 28.3493 48.5155 29.3185 48.7516C36.105 50.4052 40.8326 49.0615 42.9945 47.8056C43.4937 47.5156 43.7466 46.9598 43.7466 46.3825V45.9067C43.7466 44.6227 42.5083 43.7012 41.2512 43.9627C36.9066 44.8668 33.1696 44.6575 30.7461 44.2154C29.5955 44.0055 28.3844 44.6878 28.14 45.8316Z" fill="#FAFAFA"/>
<path fill-rule="evenodd" clip-rule="evenodd" d="M28.001 47.4311C28.0011 47.4311 28.0012 47.4311 28.0013 47.4311C34.7878 49.0847 39.5154 47.741 41.6773 46.4851C42.1765 46.1951 42.4294 45.6393 42.4294 45.062V44.5863C42.4294 44.3898 42.4004 44.2017 42.3468 44.0252C43.1412 44.2878 43.747 45.0086 43.747 45.9067V46.3825C43.747 46.9597 43.4941 47.5156 42.995 47.8056C40.833 49.0615 36.1054 50.4051 29.3189 48.7516C28.6448 48.5874 28.1622 48.0632 28.001 47.4311Z" fill="#EEEEEE"/>
<path fill-rule="evenodd" clip-rule="evenodd" d="M28.3495 48.4469C28.5769 48.7158 28.884 48.9193 29.25 49.0161C36.1305 50.8365 40.9051 49.3475 43.049 47.9835C43.4236 47.7451 43.6465 47.3533 43.72 46.9219L63.3333 44.9759V67.3333H2V57.449C5.87966 52.9626 11.3324 50.1354 17.2346 49.5498L28.3495 48.4469Z" fill="#EEEEEE"/>
<path d="M60.8794 45.2024L58.4257 45.4289L53.5184 45.8819L45.3985 46.6314M26.5711 48.3693L16.8664 49.2651C13.5139 49.5746 10.2976 50.6076 7.42456 52.2621" stroke="#040A1F" stroke-opacity="0.6" stroke-width="0.666667" stroke-linecap="round" stroke-linejoin="round"/>
<path d="M28.14 45.8316L27.9844 46.5598C27.7759 47.5354 28.3493 48.5155 29.3185 48.7516C36.105 50.4052 40.8326 49.0615 42.9945 47.8056C43.4937 47.5156 43.7466 46.9598 43.7466 46.3825V45.9067C43.7466 44.6227 42.5083 43.7012 41.2512 43.9627C36.9066 44.8668 33.1696 44.6575 30.7461 44.2154C29.5955 44.0055 28.3844 44.6878 28.14 45.8316Z" stroke="#040A1F" stroke-opacity="0.6" stroke-width="0.666667" stroke-linejoin="round"/>
<path fill-rule="evenodd" clip-rule="evenodd" d="M21.1877 20.4836C19.7164 21.5027 18.6746 23.1005 18.399 24.9643C17.7999 29.0169 17.334 32.5036 17.1103 35.4446C15.7652 34.7993 14.9562 33.2707 15.5273 30.8152C15.5778 30.2134 15.3636 29.8468 15.1225 29.4344C14.7291 28.7613 14.2642 27.9658 14.7619 25.8256C15.175 24.0497 16.1001 23.12 16.931 22.2851C17.7765 21.4354 18.5244 20.6838 18.5354 19.2383L21.1877 20.4836Z" fill="#E0E0E0"/>
<path fill-rule="evenodd" clip-rule="evenodd" d="M19.9237 20.6187C18.807 21.7014 18.0732 23.17 17.9319 24.8049C17.5755 28.9269 17.3198 32.4645 17.2783 35.4317C15.8556 34.939 14.9007 33.4971 15.3235 31.0037C15.3371 30.4209 15.1092 30.0802 14.8529 29.6969C14.4345 29.0713 13.9401 28.332 14.2947 26.2408C14.589 24.5054 15.4261 23.5556 16.1779 22.7026C16.943 21.8345 17.6197 21.0667 17.5459 19.6733L19.9237 20.6187Z" fill="white" fill-opacity="0.2"/>
<path d="M15.3637 31.0111L15.6892 31.0831C15.6927 31.0674 15.695 31.0515 15.6962 31.0354L15.3637 31.0111ZM14.9588 29.6824L14.6728 29.8537L14.6728 29.8537L14.9588 29.6824ZM14.5736 26.2028L14.2482 26.1307L14.2482 26.1307L14.5736 26.2028ZM16.6308 22.7629L16.3921 22.5303L16.6308 22.7629ZM18.0711 21.5081C18.1584 21.346 18.0978 21.1439 17.9357 21.0566C17.7736 20.9693 17.5715 21.0299 17.4842 21.192L18.0711 21.5081ZM17.5723 35.1095C16.9684 34.8277 16.3783 34.3635 15.9996 33.7074C15.6247 33.0576 15.4429 32.1957 15.6892 31.0831L15.0383 30.939C14.7586 32.2025 14.9581 33.2363 15.4222 34.0406C15.8826 34.8384 16.5893 35.3864 17.2904 35.7136L17.5723 35.1095ZM15.6962 31.0354C15.747 30.3411 15.4836 29.9098 15.2448 29.5111L14.6728 29.8537C14.908 30.2462 15.0656 30.5182 15.0313 30.9867L15.6962 31.0354ZM15.2448 29.5111C15.0531 29.191 14.8694 28.8815 14.7762 28.4122C14.6825 27.9398 14.6766 27.2799 14.8991 26.2748L14.2482 26.1307C14.0122 27.1966 14.0056 27.9536 14.1223 28.542C14.2397 29.1333 14.4779 29.5281 14.6728 29.8537L15.2448 29.5111ZM14.8991 26.2748C15.2579 24.6539 16.0818 23.8043 16.8696 22.9955L16.3921 22.5303C15.5932 23.3504 14.6502 24.3146 14.2482 26.1307L14.8991 26.2748ZM16.8696 22.9955C17.3091 22.5443 17.7615 22.0831 18.0711 21.5081L17.4842 21.192C17.2264 21.6706 16.8441 22.0663 16.3921 22.5303L16.8696 22.9955Z" fill="#040A1F" fill-opacity="0.6"/>
<path fill-rule="evenodd" clip-rule="evenodd" d="M42.062 20.4428L44.0446 20.2226C43.8409 21.6453 44.7357 22.2955 45.7759 23.0512C46.8513 23.8326 48.0822 24.7269 48.4152 26.7046C48.8065 29.0284 48.0061 29.6723 47.3287 30.2171C46.9136 30.551 46.5447 30.8476 46.5246 31.4708C46.9735 34.1367 45.5584 35.4026 43.5004 35.5977C43.6409 32.3711 43.4795 28.432 43.21 23.8C43.1384 22.5695 42.7282 21.4161 42.062 20.4428Z" fill="#E0E0E0"/>
<path fill-rule="evenodd" clip-rule="evenodd" d="M42.176 20.6152L42.4729 20.6152L44.0442 19.8294C43.839 21.263 44.7492 22.0085 45.7996 22.8691C46.8695 23.7455 48.0849 24.7412 48.4155 26.7044C48.8068 29.0282 48.0063 29.672 47.3289 30.2169C46.9139 30.5507 46.545 30.8474 46.5249 31.4706C46.9738 34.1367 45.5584 35.4026 43.5002 35.5975C43.6407 32.371 43.4793 28.4318 43.2098 23.8C43.1423 22.6413 42.7747 21.5511 42.176 20.6152Z" fill="white" fill-opacity="0.2"/>
<path d="M46.5263 31.4708L46.1976 31.5261C46.1939 31.5043 46.1925 31.4822 46.1932 31.46L46.5263 31.4708ZM47.3304 30.2171L47.5393 30.4768L47.5393 30.4768L47.3304 30.2171ZM48.417 26.7046L48.7457 26.6492L48.417 26.7046ZM45.8112 22.4053L46.0514 22.1742L45.8112 22.4053ZM43.9924 20.6961C43.9045 20.5343 43.9645 20.3319 44.1262 20.2441C44.288 20.1562 44.4904 20.2162 44.5782 20.378L43.9924 20.6961ZM43.4702 35.2659C44.4437 35.1737 45.2161 34.833 45.6968 34.2491C46.1734 33.6703 46.4111 32.7942 46.1976 31.5261L46.855 31.4154C47.0904 32.8135 46.845 33.9034 46.2115 34.6728C45.5822 35.4371 44.6177 35.8269 43.533 35.9296L43.4702 35.2659ZM46.1932 31.46C46.2188 30.668 46.7148 30.2844 47.1215 29.9573L47.5393 30.4768C47.1158 30.8174 46.8742 31.0272 46.8595 31.4816L46.1932 31.46ZM47.1215 29.9573C47.4619 29.6835 47.7714 29.4297 47.9709 28.9901C48.1702 28.5513 48.2773 27.8825 48.0883 26.7599L48.7457 26.6492C48.948 27.8505 48.8505 28.6654 48.578 29.2657C48.3058 29.8652 47.8763 30.2057 47.5393 30.4768L47.1215 29.9573ZM48.0883 26.7599C47.7828 24.946 46.6567 23.7649 45.571 22.6364L46.0514 22.1742C47.1243 23.2894 48.4017 24.6066 48.7457 26.6492L48.0883 26.7599ZM45.571 22.6364C44.973 22.0148 44.3699 21.3913 43.9924 20.6961L44.5782 20.378C44.9043 20.9784 45.4366 21.5351 46.0514 22.1742L45.571 22.6364Z" fill="#040A1F" fill-opacity="0.6"/>
<path d="M21.9025 14.4219H36.7019C40.1802 14.4219 43 17.2416 43 20.72H19.7821C17.6678 20.72 16.4361 18.3321 17.6618 16.6093C18.6381 15.2369 20.2182 14.4219 21.9025 14.4219Z" fill="#E0E0E0"/>
<path fill-rule="evenodd" clip-rule="evenodd" d="M20.1071 14.6779C19.1558 15.0469 18.318 15.6886 17.7103 16.5428C16.4649 18.2934 17.7165 20.72 19.865 20.72H43.4584C43.4584 20.2816 43.4143 19.8535 43.3304 19.44H21.779C19.6305 19.44 18.3788 17.0135 19.6243 15.2628C19.7722 15.0549 19.9337 14.8597 20.1071 14.6779Z" fill="#BDBDBD"/>
<path fill-rule="evenodd" clip-rule="evenodd" d="M36.714 14.4337H21.9423C20.2612 14.4337 18.684 15.2472 17.7095 16.617C17.7034 16.6256 17.6974 16.6341 17.6914 16.6427C18.5569 16.0314 19.601 15.6909 20.6886 15.6909H35.4603C38.5016 15.6909 41.0384 17.8506 41.6209 20.72H43.0003C43.0003 17.2482 40.1858 14.4337 36.714 14.4337Z" fill="#F5F5F5"/>
<path d="M42.0877 17.9135L42.9892 19.761C43.2053 20.2039 42.8828 20.72 42.39 20.72H19.8637C17.7152 20.72 16.4636 18.2935 17.7091 16.5428C18.7012 15.1482 20.3069 14.32 22.0184 14.32H36.3359C38.7824 14.32 41.0149 15.7147 42.0877 17.9135Z" stroke="#040A1F" stroke-opacity="0.6" stroke-width="0.666667" stroke-linejoin="round"/>
<path fill-rule="evenodd" clip-rule="evenodd" d="M17.505 29.0275L18.3851 25.6446C18.4427 25.4231 18.3098 25.1969 18.0884 25.1392C17.965 25.1071 17.8412 25.0947 17.7205 25.1C17.8228 25.2005 17.8701 25.3515 17.8314 25.5003L16.9513 28.8832C16.788 29.5109 16.3038 29.9833 15.7072 30.1502L15.664 30.356C16.517 30.4124 17.2897 29.8548 17.505 29.0275Z" fill="#F5F5F5"/>
<path fill-rule="evenodd" clip-rule="evenodd" d="M15.0025 27.1545C15.8459 27.5195 16.841 27.1441 17.2241 26.2902L19.1231 22.0569C19.328 22.0817 19.5328 22.1303 19.7339 22.2041L17.7708 26.5802C17.3688 27.4764 16.2926 27.8455 15.4252 27.3848L15.068 27.1951C15.045 27.1829 15.0231 27.1693 15.0025 27.1545Z" fill="#BDBDBD"/>
<path fill-rule="evenodd" clip-rule="evenodd" d="M47.6257 29.5474C46.576 29.8683 45.4683 29.244 45.202 28.1753L43.4087 20.9784C43.1064 20.9611 42.798 20.9783 42.4884 21.0328L44.3373 28.4528C44.6058 29.5305 45.73 30.1562 46.7874 29.8166L47.6257 29.5474Z" fill="#BDBDBD"/>
<path d="M29.921 34H25.4874C25.4304 34 25.4027 34.0689 25.443 34.1092L26.1851 34.8513C27.36 36.0263 29.3536 35.6171 29.9707 34.0743C29.9849 34.0387 29.9593 34 29.921 34Z" stroke="#040A1F" stroke-opacity="0.6" stroke-width="0.64" stroke-linecap="round" stroke-linejoin="round"/>
</g>
</svg>
