<svg xmlns="http://www.w3.org/2000/svg" width="272" height="288" viewBox="0 0 272 288" fill="none">
<path d="M237 209C240.314 209 243 206.314 243 203C243 199.686 240.314 197 237 197C233.686 197 231 199.686 231 203C231 206.314 233.686 209 237 209Z" fill="#F5F8FC"/>
<circle cx="107.352" cy="180.351" r="11.4803" transform="rotate(100.319 107.352 180.351)" fill="#F5F8FC"/>
<g filter="url(#filter0_b_2334_32085)">
<circle cx="128.145" cy="154.145" r="28.5" transform="rotate(100.319 128.145 154.145)" fill="#90CAFF" fill-opacity="0.05"/>
<circle cx="128.145" cy="154.145" r="29" transform="rotate(100.319 128.145 154.145)" stroke="url(#paint0_linear_2334_32085)" stroke-linecap="round" stroke-linejoin="round"/>
</g>
<path d="M94.8028 263C97.3972 260.348 99 256.699 99 252.678C99 244.572 92.5077 238 84.5 238C76.4923 238 70 244.572 70 252.678C70 256.706 71.6028 260.348 74.1972 263H94.7966H94.8028Z" fill="url(#paint1_linear_2334_32085)"/>
<g filter="url(#filter1_b_2334_32085)">
<path d="M187.939 262C189.273 257.563 190 252.87 190 248.01C190 220.946 167.844 199 140.5 199C113.156 199 91 220.937 91 248.01C91 252.87 91.7269 257.573 93.0613 262H187.939V262Z" fill="#90CAFF" fill-opacity="0.05"/>
<path d="M92.5825 262.144C92.6462 262.355 92.8407 262.5 93.0613 262.5H187.939V262L188.418 262.144C189.766 257.662 190.5 252.921 190.5 248.01C190.5 220.666 168.116 198.5 140.5 198.5C112.885 198.5 90.5 220.656 90.5 248.01C90.5 252.92 91.2344 257.672 92.5825 262.144Z" stroke="url(#paint2_linear_2334_32085)" stroke-linecap="round" stroke-linejoin="round"/>
</g>
<path d="M262.975 262C262.975 261.722 263 261.432 263 261.155C263 242.844 247.777 228 229 228C210.223 228 195 242.844 195 261.155C195 261.444 195.012 261.722 195.025 262H262.975V262Z" fill="url(#paint3_linear_2334_32085)"/>
<g filter="url(#filter2_b_2334_32085)">
<path d="M257.5 245C263.299 245 268 240.299 268 234.5C268 228.701 263.299 224 257.5 224C251.701 224 247 228.701 247 234.5C247 240.299 251.701 245 257.5 245Z" fill="#90CAFF" fill-opacity="0.05"/>
<path d="M257.5 245.5C263.575 245.5 268.5 240.575 268.5 234.5C268.5 228.425 263.575 223.5 257.5 223.5C251.425 223.5 246.5 228.425 246.5 234.5C246.5 240.575 251.425 245.5 257.5 245.5Z" stroke="url(#paint4_linear_2334_32085)" stroke-linecap="round" stroke-linejoin="round"/>
</g>
<path d="M233.754 195.736H145.244V161.316C145.244 160.216 146.144 159.316 147.244 159.316H231.754C232.854 159.316 233.754 160.216 233.754 161.316V195.736Z" fill="#015945"/>
<g style="mix-blend-mode:overlay" opacity="0.7">
<path d="M233.351 192.867H221.191V195.727H233.351V192.867Z" fill="black"/>
</g>
<path d="M233.754 195.736H145.244V161.316C145.244 160.216 146.144 159.316 147.244 159.316H231.754C232.854 159.316 233.754 160.216 233.754 161.316V195.736Z" stroke="url(#paint6_linear_2334_32085)" stroke-linecap="round" stroke-linejoin="round"/>
<path d="M228.91 207.766H136.04V156.366C136.04 154.786 137.32 153.506 138.9 153.506H226.04C227.62 153.506 228.9 154.786 228.9 156.366V207.766H228.91Z" fill="#D2DEF9"/>
<g style="mix-blend-mode:overlay">
<path d="M228.899 157.166V156.366C228.899 154.786 227.619 153.506 226.039 153.506H138.899C137.319 153.506 136.039 154.786 136.039 156.366V157.166H228.909H228.899Z" fill="#020202"/>
</g>
<path d="M225.129 153.506H139.809C137.729 153.506 136.039 155.196 136.039 157.276V207.756H137.359L138.589 160.846C138.639 158.206 140.759 156.066 143.399 155.986L225.139 153.496" fill="white"/>
<g style="mix-blend-mode:overlay" opacity="0.7">
<path d="M228.897 192.807H216.617V196.997H228.897V192.807Z" fill="black"/>
</g>
<path d="M228.91 207.766H136.04V156.366C136.04 154.786 137.32 153.506 138.9 153.506H226.04C227.62 153.506 228.9 154.786 228.9 156.366V207.766H228.91Z" stroke="url(#paint7_linear_2334_32085)" stroke-linecap="round" stroke-linejoin="round"/>
<path d="M222.051 197.117H129.181V145.717C129.181 144.137 130.461 142.857 132.041 142.857H219.181C220.761 142.857 222.041 144.137 222.041 145.717V197.117H222.051Z" fill="#015945"/>
<path d="M218.27 142.858H132.95C130.87 142.858 129.18 144.548 129.18 146.628V197.108H130.5L131.73 150.198C131.78 147.558 133.9 145.418 136.54 145.338L218.28 142.848" fill="white"/>
<g style="mix-blend-mode:overlay" opacity="0.7">
<path d="M222.038 196.348H209.758V192.158L212.738 154.238L216.788 189.838C216.938 191.158 218.058 192.158 219.388 192.158H222.038V196.348Z" fill="black"/>
</g>
<path d="M222.051 197.117H129.181V145.717C129.181 144.137 130.461 142.857 132.041 142.857H219.181C220.761 142.857 222.041 144.137 222.041 145.717V197.117H222.051Z" stroke="url(#paint8_linear_2334_32085)" stroke-linecap="round" stroke-linejoin="round"/>
<path d="M213.191 200.557H120.321L120.321 134.157C120.321 132.577 121.601 131.297 123.181 131.297H210.331C211.911 131.297 213.191 132.577 213.191 134.157V200.557Z" fill="#cafbe2"/>
<g style="mix-blend-mode:overlay">
<path d="M200.859 139.236H192.559" stroke="black" stroke-linecap="round" stroke-linejoin="round"/>
</g>
<g style="mix-blend-mode:overlay">
<path d="M200.86 144.857H140.57" stroke="black" stroke-linecap="round" stroke-linejoin="round"/>
</g>
<g style="mix-blend-mode:overlay">
<path d="M200.86 151.176H140.57" stroke="black" stroke-linecap="round" stroke-linejoin="round"/>
</g>
<path d="M209.418 131.287H124.098C122.018 131.287 120.328 132.977 120.328 135.057V200.537H121.648L124.668 141.737C124.838 138.427 127.478 135.787 130.778 135.597L209.418 131.277" fill="white"/>
<g style="mix-blend-mode:overlay" opacity="0.7">
<path d="M206.72 189.746L204.58 165.916L201 192.866H200.91V197.056H213.19V192.866H210.13C208.36 192.866 206.87 191.516 206.72 189.746Z" fill="black"/>
</g>
<path d="M213.191 200.557H120.321L120.321 134.157C120.321 132.577 121.601 131.297 123.181 131.297H210.331C211.911 131.297 213.191 132.577 213.191 134.157V200.557Z" stroke="url(#paint9_linear_2334_32085)" stroke-linecap="round" stroke-linejoin="round"/>
<path d="M203.92 220.747H115.41V150.047C115.41 148.947 116.31 148.047 117.41 148.047H189.21L203.92 157.217V220.737V220.747Z" fill="#F5F8FC"/>
<g style="mix-blend-mode:overlay">
<path d="M196.359 190.636L180.129 199.706L203.909 198.346V157.226L189.199 148.056L180.569 147.816L195.409 161.216L198.759 186.646C198.719 188.306 197.799 189.826 196.349 190.636H196.359Z" fill="black"/>
</g>
<path d="M189.211 148.047L193.701 157.397C194.621 159.317 196.891 160.177 198.861 159.347L203.921 157.217L189.211 148.047Z" fill="#02a67f"/>
<g style="mix-blend-mode:soft-light">
<path d="M181.228 162.586H134.638C133.539 162.586 132.648 163.477 132.648 164.576C132.648 165.675 133.539 166.566 134.638 166.566H181.228C182.327 166.566 183.218 165.675 183.218 164.576C183.218 163.477 182.327 162.586 181.228 162.586Z" fill="black"/>
</g>
<path d="M182.228 161.586H135.638C134.539 161.586 133.648 162.477 133.648 163.576C133.648 164.675 134.539 165.566 135.638 165.566H182.228C183.327 165.566 184.218 164.675 184.218 163.576C184.218 162.477 183.327 161.586 182.228 161.586Z" fill="#D2DEF9"/>
<g style="mix-blend-mode:overlay">
<path d="M183.228 164.566H136.638C135.538 164.566 134.648 163.676 134.648 162.576C134.648 162.286 134.718 162.016 134.828 161.766C134.138 162.076 133.648 162.766 133.648 163.576C133.648 164.676 134.538 165.566 135.638 165.566H182.228C183.038 165.566 183.728 165.086 184.038 164.386C183.788 164.496 183.518 164.566 183.228 164.566Z" fill="#020202"/>
</g>
<path opacity="0.3" d="M182.228 161.586H135.638C134.828 161.586 134.138 162.066 133.828 162.766C134.078 162.656 134.348 162.586 134.638 162.586H181.228C182.328 162.586 183.218 163.476 183.218 164.576C183.218 164.866 183.148 165.136 183.038 165.386C183.728 165.076 184.218 164.386 184.218 163.576C184.218 162.476 183.328 161.586 182.228 161.586Z" fill="white"/>
<g style="mix-blend-mode:soft-light">
<path d="M181.228 170H161.638C160.539 170 159.648 170.891 159.648 171.99C159.648 173.089 160.539 173.98 161.638 173.98H181.228C182.327 173.98 183.218 173.089 183.218 171.99C183.218 170.891 182.327 170 181.228 170Z" fill="black"/>
</g>
<path d="M182.228 169H162.638C161.539 169 160.648 169.891 160.648 170.99C160.648 172.089 161.539 172.98 162.638 172.98H182.228C183.327 172.98 184.218 172.089 184.218 170.99C184.218 169.891 183.327 169 182.228 169Z" fill="#D2DEF9"/>
<g style="mix-blend-mode:overlay">
<path d="M183.228 171.98H163.638C162.538 171.98 161.648 171.09 161.648 169.99C161.648 169.7 161.718 169.43 161.828 169.18C161.138 169.49 160.648 170.18 160.648 170.99C160.648 172.09 161.538 172.98 162.638 172.98H182.228C183.038 172.98 183.728 172.5 184.038 171.8C183.788 171.91 183.518 171.98 183.228 171.98Z" fill="#020202"/>
</g>
<path opacity="0.3" d="M182.228 169H162.638C161.828 169 161.138 169.48 160.828 170.18C161.078 170.07 161.348 170 161.638 170H181.228C182.328 170 183.218 170.89 183.218 171.99C183.218 172.28 183.148 172.55 183.038 172.8C183.728 172.49 184.218 171.8 184.218 170.99C184.218 169.89 183.328 169 182.228 169Z" fill="white"/>
<g style="mix-blend-mode:soft-light">
<path d="M152.639 170H150.049C148.95 170 148.059 170.891 148.059 171.99C148.059 173.089 148.95 173.98 150.049 173.98H152.639C153.738 173.98 154.629 173.089 154.629 171.99C154.629 170.891 153.738 170 152.639 170Z" fill="black"/>
</g>
<path d="M153.639 169H151.049C149.95 169 149.059 169.891 149.059 170.99C149.059 172.089 149.95 172.98 151.049 172.98H153.639C154.738 172.98 155.629 172.089 155.629 170.99C155.629 169.891 154.738 169 153.639 169Z" fill="#D2DEF9"/>
<g style="mix-blend-mode:overlay">
<path d="M154.639 171.98H152.049C150.949 171.98 150.059 171.09 150.059 169.99C150.059 169.7 150.129 169.43 150.239 169.18C149.549 169.49 149.059 170.18 149.059 170.99C149.059 172.09 149.949 172.98 151.049 172.98H153.639C154.449 172.98 155.139 172.5 155.449 171.8C155.199 171.91 154.929 171.98 154.639 171.98Z" fill="#020202"/>
</g>
<path opacity="0.3" d="M153.638 169H151.048C150.238 169 149.548 169.48 149.238 170.18C149.488 170.07 149.758 170 150.048 170H152.638C153.738 170 154.628 170.89 154.628 171.99C154.628 172.28 154.558 172.55 154.448 172.8C155.138 172.49 155.628 171.8 155.628 170.99C155.628 169.89 154.738 169 153.638 169Z" fill="white"/>
<g style="mix-blend-mode:soft-light">
<path d="M181.228 178H174.638C173.539 178 172.648 178.891 172.648 179.99C172.648 181.089 173.539 181.98 174.638 181.98H181.228C182.327 181.98 183.218 181.089 183.218 179.99C183.218 178.891 182.327 178 181.228 178Z" fill="black"/>
</g>
<path d="M182.228 177H175.638C174.539 177 173.648 177.891 173.648 178.99C173.648 180.089 174.539 180.98 175.638 180.98H182.228C183.327 180.98 184.218 180.089 184.218 178.99C184.218 177.891 183.327 177 182.228 177Z" fill="#D2DEF9"/>
<g style="mix-blend-mode:overlay">
<path d="M183.228 179.98H176.638C175.538 179.98 174.648 179.09 174.648 177.99C174.648 177.7 174.718 177.43 174.828 177.18C174.138 177.49 173.648 178.18 173.648 178.99C173.648 180.09 174.538 180.98 175.638 180.98H182.228C183.038 180.98 183.728 180.5 184.038 179.8C183.788 179.91 183.518 179.98 183.228 179.98Z" fill="#020202"/>
</g>
<path opacity="0.3" d="M182.228 177H175.638C174.828 177 174.138 177.48 173.828 178.18C174.078 178.07 174.348 178 174.638 178H181.228C182.328 178 183.218 178.89 183.218 179.99C183.218 180.28 183.148 180.55 183.038 180.8C183.728 180.49 184.218 179.8 184.218 178.99C184.218 177.89 183.328 177 182.228 177Z" fill="white"/>
<g style="mix-blend-mode:soft-light">
<path d="M168.728 178H139.138C138.039 178 137.148 178.891 137.148 179.99C137.148 181.089 138.039 181.98 139.138 181.98H168.728C169.827 181.98 170.718 181.089 170.718 179.99C170.718 178.891 169.827 178 168.728 178Z" fill="black"/>
</g>
<path d="M169.728 177H140.138C139.039 177 138.148 177.891 138.148 178.99C138.148 180.089 139.039 180.98 140.138 180.98H169.728C170.827 180.98 171.718 180.089 171.718 178.99C171.718 177.891 170.827 177 169.728 177Z" fill="#D2DEF9"/>
<g style="mix-blend-mode:overlay">
<path d="M170.728 179.98H141.138C140.038 179.98 139.148 179.09 139.148 177.99C139.148 177.7 139.218 177.43 139.328 177.18C138.638 177.49 138.148 178.18 138.148 178.99C138.148 180.09 139.038 180.98 140.138 180.98H169.728C170.538 180.98 171.228 180.5 171.538 179.8C171.288 179.91 171.018 179.98 170.728 179.98Z" fill="#020202"/>
</g>
<path opacity="0.3" d="M169.728 177H140.138C139.328 177 138.638 177.48 138.328 178.18C138.578 178.07 138.848 178 139.138 178H168.728C169.828 178 170.718 178.89 170.718 179.99C170.718 180.28 170.648 180.55 170.538 180.8C171.228 180.49 171.718 179.8 171.718 178.99C171.718 177.89 170.828 177 169.728 177Z" fill="white"/>
<path d="M188.198 148.047H118.478C116.778 148.047 115.398 149.427 115.398 151.127V200.677H118.478V156.067C118.478 153.307 120.668 151.047 123.418 150.957L188.188 148.037L188.198 148.047Z" fill="white"/>
<g style="mix-blend-mode:overlay">
<path d="M115.41 205.806V183.166H127.22C130.61 183.166 133.75 184.976 135.45 187.906L139.56 195.006C141.26 197.946 144.39 199.746 147.79 199.746H174.2L170.62 205.796H115.41V205.806Z" fill="black"/>
</g>
<g style="mix-blend-mode:overlay" opacity="0.4">
<path d="M115.41 205.806V183.166H127.22C130.61 183.166 133.75 184.976 135.45 187.906L139.56 195.006C141.26 197.946 144.39 199.746 147.79 199.746H174.2L170.62 205.796H115.41V205.806Z" fill="black"/>
</g>
<path d="M115.41 202.547V150.687C115.41 149.227 116.59 148.047 118.05 148.047H189.21L203.92 157.217V202.537" stroke="url(#paint10_linear_2334_32085)" stroke-linecap="round" stroke-linejoin="round"/>
<path d="M205.069 262.416H237.879V192.546H205.069V262.416Z" fill="#996CF7"/>
<path d="M205.069 262.416H237.879V192.546H205.069V262.416Z" fill="#D86E0F"/>
<g style="mix-blend-mode:overlay" opacity="0.5">
<path d="M205.078 243.785H237.888" stroke="#606060" stroke-linecap="round" stroke-linejoin="round"/>
</g>
<g style="mix-blend-mode:overlay" opacity="0.5">
<path d="M205.078 240.256H237.888" stroke="#606060" stroke-linecap="round" stroke-linejoin="round"/>
</g>
<g style="mix-blend-mode:overlay" opacity="0.5">
<path d="M204.789 224.775H237.599" stroke="#606060" stroke-linecap="round" stroke-linejoin="round"/>
</g>
<g style="mix-blend-mode:overlay" opacity="0.5">
<path d="M204.789 221.246H237.599" stroke="#606060" stroke-linecap="round" stroke-linejoin="round"/>
</g>
<g style="mix-blend-mode:overlay" opacity="0.5">
<path d="M204.789 234.285H237.599" stroke="#606060" stroke-linecap="round" stroke-linejoin="round"/>
</g>
<g style="mix-blend-mode:overlay" opacity="0.5">
<path d="M204.789 230.756H237.599" stroke="#606060" stroke-linecap="round" stroke-linejoin="round"/>
</g>
<g style="mix-blend-mode:overlay" opacity="0.3">
<path d="M205.078 214.716L209.748 201.266C210.348 199.536 211.868 198.306 213.688 198.066L237.888 194.956V193.166H205.078V214.706V214.716Z" fill="black"/>
</g>
<g style="mix-blend-mode:overlay" opacity="0.3">
<path d="M237.89 240.877L235.43 256.327C235.1 258.407 233.53 260.087 231.47 260.547L223.09 262.427H237.89V240.887V240.877Z" fill="black"/>
</g>
<path d="M205.069 262.416H237.879V192.546H205.069V262.416Z" stroke="url(#paint11_linear_2334_32085)" stroke-linecap="round" stroke-linejoin="round"/>
<path d="M125.499 192.547L133.339 205.807H170.609L178.459 192.547H205.079V262.417H102.199V192.547H125.499Z" fill="url(#paint12_linear_2334_32085)"/>
<g style="mix-blend-mode:overlay" opacity="0.7">
<path d="M143.67 231.617H162.28C164.6 231.617 166.48 229.739 166.48 227.422C166.48 225.105 164.6 223.227 162.28 223.227H143.67C141.351 223.227 139.47 225.105 139.47 227.422C139.47 229.739 141.351 231.617 143.67 231.617Z" fill="black"/>
</g>
<path d="M142.67 227.986H161.28C163.6 227.986 165.48 226.108 165.48 223.791C165.48 221.475 163.6 219.596 161.28 219.596H142.67C140.351 219.596 138.47 221.475 138.47 223.791C138.47 226.108 140.351 227.986 142.67 227.986Z" fill="white"/>
<g style="mix-blend-mode:overlay" opacity="0.7">
<path d="M205.079 262.416H104.539V258.086H204.999L205.079 262.416Z" fill="black"/>
</g>
<path d="M106.849 192.547H102.199V262.417H106.849V192.547Z" fill="white"/>
<g style="mix-blend-mode:overlay" opacity="0.7">
<path d="M176 196.267H193.61C198.15 196.267 202.08 199.407 203.09 203.827L205.09 212.557V192.697H178.12L176.01 196.267H176Z" fill="black"/>
</g>
<g style="mix-blend-mode:overlay" opacity="0.7">
<path d="M127.609 196.117H102.199V192.547H125.499L127.609 196.117Z" fill="black"/>
</g>
<path d="M125.499 192.547L132.189 203.857C132.899 205.067 134.199 205.807 135.609 205.807H168.349C169.749 205.807 171.049 205.067 171.769 203.857L178.459 192.547H205.079V262.417H102.199V192.547H125.499Z" stroke="url(#paint13_linear_2334_32085)" stroke-linecap="round" stroke-linejoin="round"/>
<path d="M128.88 189.316L139.2 205.806H135.46C134.14 205.806 132.91 205.126 132.21 204.006L122.02 187.736H126.02C127.18 187.736 128.26 188.336 128.88 189.316Z" fill="url(#paint14_linear_2334_32085)"/>
<path d="M142.67 229.617H161.28C163.6 229.617 165.48 227.739 165.48 225.422C165.48 223.105 163.6 221.227 161.28 221.227H142.67C140.351 221.227 138.47 223.105 138.47 225.422C138.47 227.739 140.351 229.617 142.67 229.617Z" fill="#02a67f"/>
<g style="mix-blend-mode:overlay" opacity="0.7">
<path d="M141.369 225.417V225.377C141.389 223.817 142.739 222.607 144.299 222.607H164.269C164.269 221.847 163.649 221.217 162.879 221.217H141.899V221.297C139.789 221.687 138.229 223.647 138.489 225.927C138.739 228.067 140.689 229.617 142.849 229.617H145.559C143.239 229.617 141.359 227.737 141.359 225.417H141.369Z" fill="black"/>
</g>
<path d="M142.67 229.617H161.28C163.6 229.617 165.48 227.739 165.48 225.422C165.48 223.105 163.6 221.227 161.28 221.227H142.67C140.351 221.227 138.47 223.105 138.47 225.422C138.47 227.739 140.351 229.617 142.67 229.617Z" stroke="#1B217C" stroke-linecap="round" stroke-linejoin="round"/>
<path d="M242.999 190.137C242.999 191.467 241.919 192.547 240.589 192.547H178.449L181.299 187.727H240.589C241.919 187.727 242.999 188.807 242.999 190.137V190.137Z" fill="#FFD283"/>
<path d="M180.629 189.116L181.449 187.736H242.999V189.116H180.629Z" fill="white"/>
<path d="M98.3984 190.137C98.3984 191.467 99.4784 192.547 100.808 192.547H124.878L122.028 187.727H100.808C99.4784 187.727 98.3984 188.807 98.3984 190.137Z" fill="#FFD283"/>
<path d="M122.028 187.736L99.9684 187.886L98.3984 189.116H122.848L122.028 187.736Z" fill="white"/>
<path d="M98.3984 190.137C98.3984 191.467 99.4784 192.547 100.808 192.547H124.878L122.028 187.727H100.808C99.4784 187.727 98.3984 188.807 98.3984 190.137Z" stroke="url(#paint15_linear_2334_32085)" stroke-linecap="round" stroke-linejoin="round"/>
<path d="M242.999 190.136C242.999 191.466 241.919 192.546 240.589 192.546H178.449L180.129 189.706C180.849 188.486 182.169 187.736 183.589 187.736H240.589C241.919 187.736 242.999 188.816 242.999 190.146V190.136Z" stroke="url(#paint16_linear_2334_32085)" stroke-linecap="round" stroke-linejoin="round"/>
<path d="M172.208 30.6862L64.6777 24.0262C56.9077 23.5462 50.3477 29.7162 50.3477 37.4962V90.1262C50.3477 97.9062 56.9077 104.076 64.6777 103.596L143.598 98.7062C145.428 98.5962 147.218 99.2462 148.538 100.516L157.328 108.916C158.058 109.616 159.268 109.096 159.268 108.086V99.8162C159.268 98.6462 160.178 97.6762 161.348 97.6062L172.208 96.9362C177.188 96.6262 181.068 92.4962 181.068 87.5062V40.1162C181.068 35.1262 177.188 30.9962 172.208 30.6862V30.6862Z" fill="#F5F8FC"/>
<path opacity="0.3" d="M50.3477 55.6073L94.0377 25.8473L87.7077 25.4473L50.3477 48.6273V55.6073Z" fill="white"/>
<path opacity="0.6" d="M50.3477 41.2463V45.8063L82.3677 25.1163L76.1277 24.7363L50.3477 41.2463Z" fill="white"/>
<path d="M172.207 30.6868L64.677 24.0268C60.047 23.7368 55.847 25.8268 53.207 29.2068C55.697 27.2968 58.857 26.2468 62.247 26.4568L168.467 36.4168C173.447 36.7268 177.327 40.8568 177.327 45.8468L178.637 89.9368C178.637 91.9168 178.017 93.7668 176.967 95.2868C179.447 93.5768 181.067 90.7268 181.067 87.5068V40.1168C181.067 35.1268 177.187 30.9968 172.207 30.6868V30.6868Z" fill="white"/>
<g style="mix-blend-mode:overlay">
<path d="M147.308 93.8468L68.3081 98.7368C60.5381 99.2168 53.9781 93.0468 53.9781 85.2668V32.6368C53.9781 30.7068 54.3881 28.8668 55.1081 27.2168C52.1981 29.6868 50.3281 33.3568 50.3281 37.4968V90.1268C50.3281 97.9068 56.8881 104.077 64.6581 103.597L143.578 98.7068C145.408 98.5968 147.198 99.2468 148.518 100.517L157.308 108.917C158.038 109.617 159.248 109.097 159.248 108.087V102.437L152.108 95.6068C150.818 94.3768 149.068 93.7368 147.288 93.8468H147.308Z" fill="#020202"/>
</g>
<g style="mix-blend-mode:overlay">
<path d="M68.89 90.9577C71.8668 90.9577 74.28 88.5445 74.28 85.5677C74.28 82.5909 71.8668 80.1777 68.89 80.1777C65.9132 80.1777 63.5 82.5909 63.5 85.5677C63.5 88.5445 65.9132 90.9577 68.89 90.9577Z" fill="#020202"/>
</g>
<g style="mix-blend-mode:overlay">
<path d="M73.5394 76.8873C74.7434 76.8873 75.7194 75.9113 75.7194 74.7073C75.7194 73.5034 74.7434 72.5273 73.5394 72.5273C72.3354 72.5273 71.3594 73.5034 71.3594 74.7073C71.3594 75.9113 72.3354 76.8873 73.5394 76.8873Z" fill="#020202"/>
</g>
<path d="M172.208 30.6862L64.6777 24.0262C56.9077 23.5462 50.3477 29.7162 50.3477 37.4962V90.1262C50.3477 97.9062 56.9077 104.076 64.6777 103.596L143.598 98.7062C145.428 98.5962 147.218 99.2462 148.538 100.516L157.328 108.916C158.058 109.616 159.268 109.096 159.268 108.086V99.8162C159.268 98.6462 160.178 97.6762 161.348 97.6062L172.208 96.9362C177.188 96.6262 181.068 92.4962 181.068 87.5062V40.1162C181.068 35.1262 177.188 30.9962 172.208 30.6862Z" stroke="url(#paint17_linear_2334_32085)" stroke-linecap="round" stroke-linejoin="round"/>
<g style="mix-blend-mode:overlay">
<path d="M141.347 49.7383H84.4469C82.9833 49.7383 81.7969 50.9247 81.7969 52.3883V53.5183C81.7969 54.9818 82.9833 56.1683 84.4469 56.1683H141.347C142.81 56.1683 143.997 54.9818 143.997 53.5183V52.3883C143.997 50.9247 142.81 49.7383 141.347 49.7383Z" fill="#020202"/>
<path d="M141.348 62.498H129.548C128.085 62.498 126.898 63.6845 126.898 65.148V66.278C126.898 67.7416 128.085 68.928 129.548 68.928H141.348C142.812 68.928 143.998 67.7416 143.998 66.278V65.148C143.998 63.6845 142.812 62.498 141.348 62.498Z" fill="#020202"/>
<path d="M141.345 75.248H106.005C104.542 75.248 103.355 76.4345 103.355 77.898V79.028C103.355 80.4916 104.542 81.678 106.005 81.678H141.345C142.809 81.678 143.995 80.4916 143.995 79.028V77.898C143.995 76.4345 142.809 75.248 141.345 75.248Z" fill="#020202"/>
</g>
<path d="M143.487 47.5977H86.5875C85.1239 47.5977 83.9375 48.7841 83.9375 50.2477V51.3777C83.9375 52.8412 85.1239 54.0277 86.5875 54.0277H143.487C144.951 54.0277 146.137 52.8412 146.137 51.3777V50.2477C146.137 48.7841 144.951 47.5977 143.487 47.5977Z" fill="#D2DEF9"/>
<g style="mix-blend-mode:overlay">
<path d="M145.059 52.9569H88.0992C86.3992 52.9569 85.0192 51.5769 85.0192 49.8769V48.6869C85.0192 48.3669 85.0892 48.0669 85.2192 47.7969C84.4692 48.1369 83.9492 48.8869 83.9492 49.7569V50.9469C83.9492 52.6469 85.3292 54.0269 87.0292 54.0269H143.989C144.859 54.0269 145.609 53.5069 145.949 52.7569C145.679 52.8769 145.379 52.9569 145.059 52.9569Z" fill="#020202"/>
</g>
<path opacity="0.3" d="M143.057 47.5977H86.0967C85.2267 47.5977 84.4767 48.1177 84.1367 48.8677C84.4067 48.7477 84.7067 48.6677 85.0267 48.6677H141.987C143.687 48.6677 145.067 50.0477 145.067 51.7477V52.9377C145.067 53.2577 144.997 53.5577 144.867 53.8277C145.617 53.4877 146.137 52.7377 146.137 51.8677V50.6777C146.137 48.9777 144.757 47.5977 143.057 47.5977Z" fill="white"/>
<path d="M143.497 60.3477H131.697C130.233 60.3477 129.047 61.5341 129.047 62.9977V64.1277C129.047 65.5912 130.233 66.7777 131.697 66.7777H143.497C144.96 66.7777 146.147 65.5912 146.147 64.1277V62.9977C146.147 61.5341 144.96 60.3477 143.497 60.3477Z" fill="#D2DEF9"/>
<g style="mix-blend-mode:overlay">
<path d="M145.057 65.7069H133.197C131.497 65.7069 130.117 64.3269 130.117 62.6269V61.4369C130.117 61.1169 130.187 60.8169 130.317 60.5469C129.567 60.8869 129.047 61.6369 129.047 62.5069V63.6969C129.047 65.3969 130.427 66.7769 132.127 66.7769H143.987C144.857 66.7769 145.607 66.2569 145.947 65.5069C145.677 65.6269 145.377 65.7069 145.057 65.7069Z" fill="#020202"/>
</g>
<path opacity="0.3" d="M143.058 60.3477H131.198C130.328 60.3477 129.578 60.8677 129.238 61.6177C129.508 61.4977 129.808 61.4177 130.128 61.4177H141.988C143.688 61.4177 145.068 62.7977 145.068 64.4977V65.6877C145.068 66.0077 144.998 66.3077 144.868 66.5777C145.618 66.2377 146.138 65.4877 146.138 64.6177V63.4277C146.138 61.7277 144.758 60.3477 143.058 60.3477Z" fill="white"/>
<path d="M143.498 73.1074H108.158C106.694 73.1074 105.508 74.2939 105.508 75.7574V76.8874C105.508 78.351 106.694 79.5374 108.158 79.5374H143.498C144.961 79.5374 146.148 78.351 146.148 76.8874V75.7574C146.148 74.2939 144.961 73.1074 143.498 73.1074Z" fill="#D2DEF9"/>
<g style="mix-blend-mode:overlay">
<path d="M145.058 78.4686H109.658C107.958 78.4686 106.578 77.0886 106.578 75.3886V74.1986C106.578 73.8786 106.648 73.5786 106.778 73.3086C106.028 73.6486 105.508 74.3986 105.508 75.2686V76.4586C105.508 78.1586 106.888 79.5386 108.588 79.5386H143.988C144.858 79.5386 145.608 79.0186 145.948 78.2686C145.678 78.3886 145.378 78.4686 145.058 78.4686Z" fill="#020202"/>
</g>
<path opacity="0.3" d="M143.059 73.1074H107.659C106.789 73.1074 106.039 73.6274 105.699 74.3774C105.969 74.2574 106.269 74.1774 106.589 74.1774H141.989C143.689 74.1774 145.069 75.5574 145.069 77.2574V78.4474C145.069 78.7674 144.999 79.0674 144.869 79.3374C145.619 78.9974 146.139 78.2474 146.139 77.3774V76.1874C146.139 74.4874 144.759 73.1074 143.059 73.1074Z" fill="white"/>
<path d="M41.2983 180.647L29.1583 193.137L39.5283 182.467C40.6583 181.297 42.2083 180.617 43.8283 180.567L81.3483 179.357C85.7583 179.217 89.2583 175.597 89.2583 171.187V146.197C89.2583 142.207 86.1183 138.917 82.1283 138.737L18.3283 135.857C14.3283 135.677 10.9883 138.867 10.9883 142.877V176.637C10.9883 179.267 13.1583 181.387 15.7983 181.317L27.0183 181.027C28.1983 180.997 29.1783 181.947 29.1683 183.127V193.147" fill="#F5F8FC"/>
<path d="M18.3187 135.848L83.2687 138.558C85.2687 138.648 86.8687 139.538 87.4487 141.348C86.6487 140.698 85.6788 140.738 84.5788 140.738L17.1087 140.628C14.4387 140.608 12.2987 142.828 12.3987 145.498L13.7888 180.928C12.1388 180.208 10.9688 178.568 10.9688 176.638V142.878C10.9688 138.878 14.3088 135.678 18.3088 135.858L18.3187 135.848Z" fill="white"/>
<g style="mix-blend-mode:overlay">
<path d="M40.8484 178.458L76.8684 173.708C80.3484 173.248 83.0584 170.448 83.3984 166.958L86.0784 139.708C86.0784 139.498 86.1084 139.908 86.0784 139.708C87.9684 140.318 89.2484 144.118 89.2484 146.198V171.188C89.2484 175.598 85.7484 179.208 81.3384 179.358L43.7084 180.578C42.1484 180.628 40.6584 181.258 39.5384 182.348L29.9584 191.648L29.1484 190.228L38.7184 179.598C39.2684 178.988 40.0184 178.588 40.8384 178.478L40.8484 178.458Z" fill="#020202"/>
</g>
<path d="M18.3187 135.847L82.1188 138.727C86.1088 138.907 89.2487 142.197 89.2487 146.187V171.177C89.2487 175.587 85.7487 179.197 81.3387 179.347L43.8187 180.557C42.1887 180.607 40.6488 181.287 39.5188 182.457L31.2488 190.967C30.4888 191.757 29.1488 191.217 29.1488 190.117V183.107C29.1488 181.927 28.1788 180.977 26.9988 181.007L15.7787 181.297C13.1487 181.367 10.9688 179.247 10.9688 176.617V142.857C10.9688 138.857 14.3088 135.657 18.3088 135.837L18.3187 135.847Z" stroke="url(#paint18_linear_2334_32085)" stroke-linecap="round" stroke-linejoin="round"/>
<path d="M16.3281 146.137V153.027" stroke="white" stroke-width="2" stroke-linecap="round" stroke-linejoin="round"/>
<path d="M16.3281 157.107V157.727" stroke="white" stroke-width="2" stroke-linecap="round" stroke-linejoin="round"/>
<g style="mix-blend-mode:overlay">
<path d="M69.0733 166.016C66.3674 166.016 64.1836 163.821 64.1836 161.126C64.1836 158.431 66.3781 156.236 69.0733 156.236C71.7684 156.236 73.9629 158.431 73.9629 161.126C73.9629 163.821 71.7684 166.016 69.0733 166.016Z" fill="#020202"/>
</g>
<path d="M67.8467 164.789C65.1409 164.789 62.957 162.595 62.957 159.899C62.957 157.204 65.1515 155.01 67.8467 155.01C70.5419 155.01 72.7363 157.204 72.7363 159.899C72.7363 162.595 70.5419 164.789 67.8467 164.789Z" fill="#FFAD08"/>
<g style="mix-blend-mode:overlay" opacity="0.3">
<path d="M67.8467 155.011C69.4446 155.011 70.8614 155.788 71.7456 156.981C70.9253 156.374 69.924 155.991 68.8267 155.991C66.1209 155.991 63.9371 158.185 63.9371 160.88C63.9371 161.978 64.3099 162.979 64.9278 163.799C63.7347 162.904 62.957 161.498 62.957 159.89C62.957 157.184 65.1515 155 67.8467 155V155.011Z" fill="white"/>
</g>
<g style="mix-blend-mode:overlay">
<path d="M66.6192 163.575C69.325 163.575 71.5088 161.391 71.5088 158.686C71.5088 157.642 71.1786 156.693 70.6246 155.895C71.8923 156.779 72.7232 158.238 72.7232 159.9C72.7232 162.606 70.5394 164.79 67.8336 164.79C66.1717 164.79 64.7017 163.959 63.8281 162.691C64.6271 163.245 65.5752 163.575 66.6192 163.575V163.575Z" fill="#020202"/>
</g>
<g style="mix-blend-mode:overlay">
<path d="M46.4219 161.276C46.4219 163.385 48.137 165.1 50.2462 165.1C52.3555 165.1 54.0706 163.385 54.0706 161.276C54.0706 159.166 52.3555 157.451 50.2462 157.451C48.137 157.451 46.4219 159.166 46.4219 161.276Z" fill="#020202"/>
</g>
<path d="M44.8984 159.752C44.8984 161.861 46.6135 163.576 48.7228 163.576C50.8321 163.576 52.5472 161.861 52.5472 159.752C52.5472 157.643 50.8321 155.928 48.7228 155.928C46.6135 155.928 44.8984 157.643 44.8984 159.752V159.752Z" fill="#FFAD08"/>
<g style="mix-blend-mode:overlay">
<path d="M47.1899 162.042C49.2992 162.042 51.0143 160.327 51.0143 158.218C51.0143 157.558 50.8332 156.95 50.5455 156.396C51.7386 157.036 52.5483 158.293 52.5483 159.741C52.5483 161.851 50.8332 163.566 48.7239 163.566C47.2751 163.566 46.0394 162.756 45.3789 161.563C45.9115 161.851 46.5401 162.032 47.2005 162.032L47.1899 162.042Z" fill="#020202"/>
</g>
<g style="mix-blend-mode:overlay">
<path d="M26.2266 161.126C26.2266 163.832 28.4104 166.016 31.1162 166.016C33.822 166.016 36.0059 163.832 36.0059 161.126C36.0059 158.42 33.822 156.236 31.1162 156.236C28.4104 156.236 26.2266 158.42 26.2266 161.126Z" fill="#020202"/>
</g>
<path d="M25 159.899C25 162.605 27.1838 164.789 29.8897 164.789C32.5955 164.789 34.7793 162.605 34.7793 159.899C34.7793 157.194 32.5955 155.01 29.8897 155.01C27.1838 155.01 25 157.194 25 159.899Z" fill="#FFAD08"/>
<g style="mix-blend-mode:overlay">
<path d="M28.666 163.575C31.3719 163.575 33.5557 161.391 33.5557 158.686C33.5557 157.642 33.2255 156.693 32.6715 155.895C33.9392 156.779 34.7701 158.238 34.7701 159.9C34.7701 162.606 32.5863 164.79 29.8805 164.79C28.2186 164.79 26.7485 163.959 25.875 162.691C26.674 163.245 27.6221 163.575 28.666 163.575V163.575Z" fill="#020202"/>
</g>
<g style="mix-blend-mode:overlay" opacity="0.3">
<path d="M29.8897 155.011C31.4876 155.011 32.9044 155.788 33.7886 156.981C32.9683 156.374 31.967 155.991 30.8697 155.991C28.1639 155.991 25.9801 158.185 25.9801 160.88C25.9801 161.978 26.3529 162.979 26.9708 163.799C25.7777 162.904 25 161.498 25 159.89C25 157.184 27.1945 155 29.8897 155V155.011Z" fill="white"/>
</g>
<path d="M229.199 200.127V209.817" stroke="white" stroke-width="2" stroke-linecap="round" stroke-linejoin="round"/>
<path d="M229.199 214.566V216.016" stroke="white" stroke-width="2" stroke-linecap="round" stroke-linejoin="round"/>
<path d="M203.921 157.227L198.861 159.357C196.891 160.187 194.621 159.327 193.701 157.407L189.211 148.057" stroke="url(#paint19_linear_2334_32085)" stroke-linecap="round" stroke-linejoin="round"/>
<path d="M266.2 262.416H4" stroke="url(#paint20_linear_2334_32085)" stroke-linecap="round" stroke-linejoin="round"/>
<path d="M35.9903 262.418C38.9837 262.418 41.4103 259.992 41.4103 256.998C41.4103 254.005 38.9837 251.578 35.9903 251.578C32.9969 251.578 30.5703 254.005 30.5703 256.998C30.5703 259.992 32.9969 262.418 35.9903 262.418Z" fill="#1B217C" stroke="#1B217C" stroke-linecap="round" stroke-linejoin="round"/>
<path d="M73.3731 262.418C76.3665 262.418 78.7931 259.992 78.7931 256.998C78.7931 254.005 76.3665 251.578 73.3731 251.578C70.3797 251.578 67.9531 254.005 67.9531 256.998C67.9531 259.992 70.3797 262.418 73.3731 262.418Z" fill="#1B217C" stroke="#1B217C" stroke-linecap="round" stroke-linejoin="round"/>
<path d="M21.25 254.498H84.43L84.59 249.818L81.61 243.178H29.99C27.99 243.178 26.05 243.908 24.55 245.218L24.36 245.388C22.74 246.808 21.73 248.798 21.56 250.938L21.26 254.508L21.25 254.498Z" fill="#D86E0F"/>
<g style="mix-blend-mode:overlay" opacity="0.7">
<path d="M84.3014 252.418H76.1914V254.498H84.3014V252.418Z" fill="black"/>
</g>
<path d="M21.25 254.498H84.43L84.59 249.818L81.61 243.178H29.99C27.99 243.178 26.05 243.908 24.55 245.218L24.36 245.388C22.74 246.808 21.73 248.798 21.56 250.938L21.26 254.508L21.25 254.498Z" stroke="url(#paint21_linear_2334_32085)" stroke-linecap="round" stroke-linejoin="round"/>
<path d="M31.5803 243.177H73.1103L66.7303 230.677C64.8903 227.067 61.1703 224.787 57.1103 224.787H44.9803C42.5103 224.787 40.2503 226.177 39.1203 228.377L31.5703 243.177H31.5803Z" fill="#FFE9C5"/>
<path d="M31.5803 243.177H73.1103L66.7303 230.677C64.8903 227.067 61.1703 224.787 57.1103 224.787H44.9803C42.5103 224.787 40.2503 226.177 39.1203 228.377L31.5703 243.177H31.5803Z" stroke="url(#paint22_linear_2334_32085)" stroke-linecap="round" stroke-linejoin="round"/>
<path d="M57.1211 224.787H65.4611C69.5211 224.787 73.2311 227.067 75.0811 230.677L81.4611 243.177H73.1211L66.7411 230.677C64.9011 227.067 61.1811 224.787 57.1211 224.787Z" fill="#FFAD08"/>
<path fillRule="evenodd" clipRule="evenodd" d="M65.4611 224.787H57.1211C59.4077 224.787 61.5866 225.51 63.3824 226.787H64.4611C68.5211 226.787 72.2311 229.067 74.0811 232.677L79.4403 243.177H81.4611L75.0811 230.677C73.2311 227.067 69.5211 224.787 65.4611 224.787Z" fill="white"/>
<path d="M57.1211 224.787H65.4611C69.5211 224.787 73.2311 227.067 75.0811 230.677L81.4611 243.177H73.1211L66.7411 230.677C64.9011 227.067 61.1811 224.787 57.1211 224.787V224.787Z" stroke="url(#paint23_linear_2334_32085)" stroke-linecap="round" stroke-linejoin="round"/>
<path d="M57.1211 224.787H65.4611C69.5211 224.787 73.2311 227.067 75.0811 230.677L81.4611 243.177H73.1211L66.7411 230.677C64.9011 227.067 61.1811 224.787 57.1211 224.787V224.787Z" stroke="url(#paint24_linear_2334_32085)" stroke-linecap="round" stroke-linejoin="round"/>
<path d="M16.0195 254.498H76.1995L76.3595 249.818L73.3795 243.178H24.8695C22.7895 243.178 20.7795 243.928 19.2095 245.298C17.5295 246.768 16.4795 248.838 16.2995 251.068L16.0195 254.498V254.498Z" fill="#FFAD08"/>
<path d="M16.0195 254.498H76.1995L76.3595 249.818L73.3795 243.178H24.8695C22.7895 243.178 20.7795 243.928 19.2095 245.298C17.5295 246.768 16.4795 248.838 16.2995 251.068L16.0195 254.498V254.498Z" fill="url(#paint25_linear_2334_32085)"/>
<g style="mix-blend-mode:overlay" opacity="0.7">
<path d="M76.1931 252.418H15.2031V254.498H76.1931V252.418Z" fill="black"/>
</g>
<path d="M18.2995 252.068C18.4795 249.838 19.5295 247.768 21.2095 246.298C22.7795 244.928 24.7895 244.178 26.8695 244.178H73.8295L73.3795 243.178H24.8695C22.7895 243.178 20.7795 243.928 19.2095 245.298C17.5295 246.768 16.4795 248.838 16.2995 251.068L16.0195 254.498H18.0995L18.2995 252.068Z" fill="white"/>
<path d="M16.0195 254.498H76.1995L76.3595 249.818L73.3795 243.178H24.7495C22.7495 243.178 20.8095 243.908 19.3095 245.218L19.1195 245.388C17.4995 246.808 16.4895 248.798 16.3195 250.938L16.0195 254.508V254.498Z" stroke="url(#paint26_linear_2334_32085)" stroke-linecap="round" stroke-linejoin="round"/>
<path d="M14.4933 257.537H84.3133C85.0313 257.537 85.6133 256.955 85.6133 256.237V255.807C85.6133 255.089 85.0313 254.507 84.3133 254.507H14.4933C13.7753 254.507 13.1933 255.089 13.1933 255.807V256.237C13.1933 256.955 13.7753 257.537 14.4933 257.537Z" fill="#A34A00"/>
<path d="M14.4933 257.537H84.3133C85.0313 257.537 85.6133 256.955 85.6133 256.237V255.807C85.6133 255.089 85.0313 254.507 84.3133 254.507H14.4933C13.7753 254.507 13.1933 255.089 13.1933 255.807V256.237C13.1933 256.955 13.7753 257.537 14.4933 257.537Z" stroke="url(#paint27_linear_2334_32085)" stroke-linecap="round" stroke-linejoin="round"/>
<path d="M14.4905 257.537H76.6805C77.3984 257.537 77.9805 256.955 77.9805 256.237V255.807C77.9805 255.089 77.3984 254.507 76.6805 254.507H14.4905C13.7725 254.507 13.1905 255.089 13.1905 255.807V256.237C13.1905 256.955 13.7725 257.537 14.4905 257.537Z" fill="#D86E0F"/>
<path d="M14.4905 257.537H76.6805C77.3984 257.537 77.9805 256.955 77.9805 256.237V255.807C77.9805 255.089 77.3984 254.507 76.6805 254.507H14.4905C13.7725 254.507 13.1905 255.089 13.1905 255.807V256.237C13.1905 256.955 13.7725 257.537 14.4905 257.537Z" stroke="url(#paint28_linear_2334_32085)" stroke-linecap="round" stroke-linejoin="round"/>
<path d="M64.5998 240.697H56.7798C55.8498 240.697 55.0898 239.937 55.0898 239.007V230.147C55.0898 229.217 55.8498 228.457 56.7798 228.457H58.7698C60.2598 228.457 61.6298 229.297 62.2998 230.637L66.1098 238.257C66.6698 239.377 65.8498 240.707 64.5998 240.707V240.697Z" fill="url(#paint29_linear_2334_32085)"/>
<path d="M39.2597 240.697H50.6297C51.5597 240.697 52.3197 239.937 52.3197 239.007V230.147C52.3197 229.217 51.5597 228.457 50.6297 228.457H44.9797C43.5497 228.457 42.2397 229.267 41.5997 230.547L37.7497 238.257C37.1897 239.377 38.0097 240.707 39.2597 240.707V240.697Z" fill="url(#paint30_linear_2334_32085)"/>
<path d="M64.2911 262.416C67.2845 262.416 69.7111 259.99 69.7111 256.996C69.7111 254.003 67.2845 251.576 64.2911 251.576C61.2977 251.576 58.8711 254.003 58.8711 256.996C58.8711 259.99 61.2977 262.416 64.2911 262.416Z" fill="#F9ECE4"/>
<path d="M64.2911 262.416C67.2845 262.416 69.7111 259.99 69.7111 256.996C69.7111 254.003 67.2845 251.576 64.2911 251.576C61.2977 251.576 58.8711 254.003 58.8711 256.996C58.8711 259.99 61.2977 262.416 64.2911 262.416Z" stroke="url(#paint31_linear_2334_32085)" stroke-linecap="round" stroke-linejoin="round"/>
<path d="M76.3633 249.816H84.5933" stroke="url(#paint32_linear_2334_32085)" stroke-linecap="round" stroke-linejoin="round"/>
<path d="M15.6217 250.348C17.9117 250.348 19.7717 252.208 19.7717 254.498H14.7617V251.218C14.7617 250.738 15.1517 250.358 15.6217 250.358V250.348Z" fill="white"/>
<path d="M15.6217 250.348C17.9117 250.348 19.7717 252.208 19.7717 254.498H14.7617V251.218C14.7617 250.738 15.1517 250.358 15.6217 250.358V250.348Z" stroke="url(#paint33_linear_2334_32085)" stroke-linecap="round" stroke-linejoin="round"/>
<path d="M26.8614 262.416C29.8548 262.416 32.2814 259.99 32.2814 256.996C32.2814 254.003 29.8548 251.576 26.8614 251.576C23.868 251.576 21.4414 254.003 21.4414 256.996C21.4414 259.99 23.868 262.416 26.8614 262.416Z" fill="#F9ECE4"/>
<path d="M26.8614 262.416C29.8548 262.416 32.2814 259.99 32.2814 256.996C32.2814 254.003 29.8548 251.576 26.8614 251.576C23.868 251.576 21.4414 254.003 21.4414 256.996C21.4414 259.99 23.868 262.416 26.8614 262.416Z" stroke="url(#paint34_linear_2334_32085)" stroke-linecap="round" stroke-linejoin="round"/>
<defs>
<filter id="filter0_b_2334_32085" x="91.6406" y="117.639" width="73.0078" height="73.0117" filterUnits="userSpaceOnUse" color-interpolation-filters="sRGB">
<feFlood flood-opacity="0" result="BackgroundImageFix"/>
<feGaussianBlur in="BackgroundImageFix" stdDeviation="3.5"/>
<feComposite in2="SourceAlpha" operator="in" result="effect1_backgroundBlur_2334_32085"/>
<feBlend mode="normal" in="SourceGraphic" in2="effect1_backgroundBlur_2334_32085" result="shape"/>
</filter>
<filter id="filter1_b_2334_32085" x="83" y="191" width="115" height="79" filterUnits="userSpaceOnUse" color-interpolation-filters="sRGB">
<feFlood flood-opacity="0" result="BackgroundImageFix"/>
<feGaussianBlur in="BackgroundImageFix" stdDeviation="3.5"/>
<feComposite in2="SourceAlpha" operator="in" result="effect1_backgroundBlur_2334_32085"/>
<feBlend mode="normal" in="SourceGraphic" in2="effect1_backgroundBlur_2334_32085" result="shape"/>
</filter>
<filter id="filter2_b_2334_32085" x="239" y="216" width="37" height="37" filterUnits="userSpaceOnUse" color-interpolation-filters="sRGB">
<feFlood flood-opacity="0" result="BackgroundImageFix"/>
<feGaussianBlur in="BackgroundImageFix" stdDeviation="3.5"/>
<feComposite in2="SourceAlpha" operator="in" result="effect1_backgroundBlur_2334_32085"/>
<feBlend mode="normal" in="SourceGraphic" in2="effect1_backgroundBlur_2334_32085" result="shape"/>
</filter>
<linearGradient id="paint0_linear_2334_32085" x1="129.028" y1="124.025" x2="47.0677" y2="380.19" gradientUnits="userSpaceOnUse">
<stop stop-color="white" stop-opacity="0.25"/>
<stop offset="1" stop-color="white" stop-opacity="0"/>
</linearGradient>
<linearGradient id="paint1_linear_2334_32085" x1="94" y1="263" x2="80" y2="235" gradientUnits="userSpaceOnUse">
<stop stop-color="#D2DEF9"/>
<stop offset="1" stop-color="#D2DEF9" stop-opacity="0"/>
</linearGradient>
<linearGradient id="paint2_linear_2334_32085" x1="142.035" y1="197.21" x2="81.0161" y2="496.9" gradientUnits="userSpaceOnUse">
<stop stop-color="white" stop-opacity="0.25"/>
<stop offset="1" stop-color="white" stop-opacity="0"/>
</linearGradient>
<linearGradient id="paint3_linear_2334_32085" x1="254" y1="274.5" x2="224.5" y2="220" gradientUnits="userSpaceOnUse">
<stop stop-color="#D2DEF9"/>
<stop offset="1" stop-color="#D2DEF9" stop-opacity="0"/>
</linearGradient>
<linearGradient id="paint4_linear_2334_32085" x1="257.826" y1="223.403" x2="227.63" y2="317.78" gradientUnits="userSpaceOnUse">
<stop stop-color="white" stop-opacity="0.25"/>
<stop offset="1" stop-color="white" stop-opacity="0"/>
</linearGradient>
<linearGradient id="paint5_linear_2334_32085" x1="229.504" y1="159" x2="234.004" y2="196" gradientUnits="userSpaceOnUse">
<stop stop-color="#6CAAF4"/>
<stop offset="1" stop-color="#6CAAF4" stop-opacity="0"/>
</linearGradient>
<linearGradient id="paint6_linear_2334_32085" x1="213.504" y1="147" x2="246.329" y2="160.475" gradientUnits="userSpaceOnUse">
<stop stop-color="#1B217C"/>
<stop offset="1" stop-color="#1B217C" stop-opacity="0"/>
</linearGradient>
<linearGradient id="paint7_linear_2334_32085" x1="220.22" y1="140.738" x2="205.455" y2="192.055" gradientUnits="userSpaceOnUse">
<stop stop-color="#1B217C"/>
<stop offset="1" stop-color="#1B217C" stop-opacity="0"/>
</linearGradient>
<linearGradient id="paint8_linear_2334_32085" x1="204.501" y1="112.5" x2="194.501" y2="205.5" gradientUnits="userSpaceOnUse">
<stop stop-color="#1B217C"/>
<stop offset="1" stop-color="#1B217C" stop-opacity="0"/>
</linearGradient>
<linearGradient id="paint9_linear_2334_32085" x1="204.501" y1="115" x2="181.548" y2="177.495" gradientUnits="userSpaceOnUse">
<stop stop-color="#1B217C"/>
<stop offset="1" stop-color="#1B217C" stop-opacity="0"/>
</linearGradient>
<linearGradient id="paint10_linear_2334_32085" x1="181.5" y1="104" x2="163.5" y2="203" gradientUnits="userSpaceOnUse">
<stop offset="0.116712" stop-color="#1B217C"/>
<stop offset="1" stop-color="#1B217C" stop-opacity="0"/>
</linearGradient>
<linearGradient id="paint11_linear_2334_32085" x1="229.975" y1="189.278" x2="178.761" y2="241.608" gradientUnits="userSpaceOnUse">
<stop stop-color="#1B217C"/>
<stop offset="1" stop-color="#1B217C" stop-opacity="0"/>
</linearGradient>
<linearGradient id="paint12_linear_2334_32085" x1="153.639" y1="192.547" x2="153.999" y2="283" gradientUnits="userSpaceOnUse">
<stop stop-color="#FFAD08"/>
<stop offset="1" stop-color="#FFE9C5"/>
</linearGradient>
<linearGradient id="paint13_linear_2334_32085" x1="126.983" y1="265.685" x2="116.999" y2="159.5" gradientUnits="userSpaceOnUse">
<stop stop-color="#1B217C"/>
<stop offset="1" stop-color="#1B217C" stop-opacity="0"/>
</linearGradient>
<linearGradient id="paint14_linear_2334_32085" x1="131" y1="200.5" x2="119.5" y2="178" gradientUnits="userSpaceOnUse">
<stop stop-color="#1B217C"/>
<stop offset="1" stop-color="#1B217C" stop-opacity="0"/>
</linearGradient>
<linearGradient id="paint15_linear_2334_32085" x1="104.777" y1="192.772" x2="105.365" y2="185.753" gradientUnits="userSpaceOnUse">
<stop stop-color="#1B217C"/>
<stop offset="1" stop-color="#1B217C" stop-opacity="0"/>
</linearGradient>
<linearGradient id="paint16_linear_2334_32085" x1="240.499" y1="204.5" x2="235.889" y2="216.608" gradientUnits="userSpaceOnUse">
<stop stop-color="#1B217C"/>
<stop offset="1" stop-color="#1B217C" stop-opacity="0"/>
</linearGradient>
<linearGradient id="paint17_linear_2334_32085" x1="81.8381" y1="113.224" x2="116.206" y2="-1.46192" gradientUnits="userSpaceOnUse">
<stop stop-color="#1B217C"/>
<stop offset="1" stop-color="#1B217C" stop-opacity="0"/>
</linearGradient>
<linearGradient id="paint18_linear_2334_32085" x1="-22.0015" y1="226.5" x2="91.9774" y2="133.339" gradientUnits="userSpaceOnUse">
<stop stop-color="#1B217C"/>
<stop offset="1" stop-color="#1B217C" stop-opacity="0"/>
</linearGradient>
<linearGradient id="paint19_linear_2334_32085" x1="199.001" y1="148" x2="201.094" y2="163.963" gradientUnits="userSpaceOnUse">
<stop stop-color="#1B217C"/>
<stop offset="1" stop-color="#1B217C" stop-opacity="0"/>
</linearGradient>
<linearGradient id="paint20_linear_2334_32085" x1="266" y1="265.499" x2="-4" y2="264.999" gradientUnits="userSpaceOnUse">
<stop stop-color="#1B217C" stop-opacity="0.1"/>
<stop offset="0.173409" stop-color="#1B217C"/>
<stop offset="0.664599" stop-color="#1B217C" stop-opacity="0.8"/>
<stop offset="1" stop-color="#1B217C" stop-opacity="0"/>
</linearGradient>
<linearGradient id="paint21_linear_2334_32085" x1="101.5" y1="234.001" x2="66.5" y2="260.001" gradientUnits="userSpaceOnUse">
<stop stop-color="#1B217C"/>
<stop offset="1" stop-color="#1B217C" stop-opacity="0"/>
</linearGradient>
<linearGradient id="paint22_linear_2334_32085" x1="42.0004" y1="254" x2="59.5004" y2="217.5" gradientUnits="userSpaceOnUse">
<stop stop-color="#1B217C"/>
<stop offset="1" stop-color="#1B217C" stop-opacity="0"/>
</linearGradient>
<linearGradient id="paint23_linear_2334_32085" x1="97.001" y1="233.5" x2="55.001" y2="228" gradientUnits="userSpaceOnUse">
<stop stop-color="#1B217C"/>
<stop offset="1" stop-color="#1B217C" stop-opacity="0"/>
</linearGradient>
<linearGradient id="paint24_linear_2334_32085" x1="123.501" y1="264.5" x2="72.001" y2="231.5" gradientUnits="userSpaceOnUse">
<stop stop-color="#1B217C"/>
<stop offset="1" stop-color="#1B217C" stop-opacity="0"/>
</linearGradient>
<linearGradient id="paint25_linear_2334_32085" x1="47.9996" y1="255.501" x2="47.9996" y2="245.501" gradientUnits="userSpaceOnUse">
<stop stop-color="#FFAD08"/>
<stop offset="1" stop-color="white" stop-opacity="0.6"/>
</linearGradient>
<linearGradient id="paint26_linear_2334_32085" x1="30.5554" y1="255.038" x2="31.9785" y2="238.547" gradientUnits="userSpaceOnUse">
<stop stop-color="#1B217C"/>
<stop offset="1" stop-color="#1B217C" stop-opacity="0"/>
</linearGradient>
<linearGradient id="paint27_linear_2334_32085" x1="68.1673" y1="254.365" x2="68.0819" y2="258.807" gradientUnits="userSpaceOnUse">
<stop stop-color="#1B217C"/>
<stop offset="1" stop-color="#1B217C" stop-opacity="0"/>
</linearGradient>
<linearGradient id="paint28_linear_2334_32085" x1="62.3726" y1="254.365" x2="62.2771" y2="258.806" gradientUnits="userSpaceOnUse">
<stop stop-color="#1B217C"/>
<stop offset="1" stop-color="#1B217C" stop-opacity="0"/>
</linearGradient>
<linearGradient id="paint29_linear_2334_32085" x1="59.2123" y1="238.5" x2="57.8988" y2="222.044" gradientUnits="userSpaceOnUse">
<stop stop-color="white"/>
<stop offset="1" stop-color="white" stop-opacity="0"/>
</linearGradient>
<linearGradient id="paint30_linear_2334_32085" x1="42.9995" y1="238.5" x2="41.9995" y2="222" gradientUnits="userSpaceOnUse">
<stop stop-color="white"/>
<stop offset="1" stop-color="white" stop-opacity="0"/>
</linearGradient>
<linearGradient id="paint31_linear_2334_32085" x1="61.4825" y1="262.923" x2="67.5135" y2="249.8" gradientUnits="userSpaceOnUse">
<stop stop-color="#1B217C"/>
<stop offset="1" stop-color="#1B217C" stop-opacity="0"/>
</linearGradient>
<linearGradient id="paint32_linear_2334_32085" x1="78.3459" y1="250.863" x2="78.4275" y2="249.401" gradientUnits="userSpaceOnUse">
<stop stop-color="#1B217C"/>
<stop offset="1" stop-color="#1B217C" stop-opacity="0"/>
</linearGradient>
<linearGradient id="paint33_linear_2334_32085" x1="15.9686" y1="254.692" x2="17.992" y2="249.377" gradientUnits="userSpaceOnUse">
<stop stop-color="#1B217C"/>
<stop offset="1" stop-color="#1B217C" stop-opacity="0"/>
</linearGradient>
<linearGradient id="paint34_linear_2334_32085" x1="24.0528" y1="262.923" x2="30.0838" y2="249.8" gradientUnits="userSpaceOnUse">
<stop stop-color="#1B217C"/>
<stop offset="1" stop-color="#1B217C" stop-opacity="0"/>
</linearGradient>
</defs>
</svg>